<svg xmlns="http://www.w3.org/2000/svg" xmlns:xlink="http://www.w3.org/1999/xlink" width="500" zoomAndPan="magnify" viewBox="0 0 375 374.999991" height="500" preserveAspectRatio="xMidYMid meet" version="1.0"><defs><g/><clipPath id="d97b5eff29"><path d="M 134.84375 108.429688 L 239.84375 108.429688 L 239.84375 213.429688 L 134.84375 213.429688 Z M 134.84375 108.429688 " clip-rule="nonzero"/></clipPath><clipPath id="51bcb33615"><path d="M 189 154 L 227.875 154 L 227.875 199.25 L 189 199.25 Z M 189 154 " clip-rule="nonzero"/></clipPath><clipPath id="0c8843c4e7"><path d="M 147 154 L 186 154 L 186 199.25 L 147 199.25 Z M 147 154 " clip-rule="nonzero"/></clipPath></defs><rect x="-37.5" width="450" fill="#ffffff" y="-37.499999" height="449.999989" fill-opacity="1"/><rect x="-37.5" width="450" fill="#ffffff" y="-37.499999" height="449.999989" fill-opacity="1"/><g clip-path="url(#d97b5eff29)"><path fill="#05927d" d="M 187.496094 213.734375 C 158.40625 213.734375 134.84375 190.007812 134.84375 161.082031 C 134.84375 132.15625 158.40625 108.429688 187.496094 108.429688 C 216.582031 108.429688 240.148438 131.992188 240.148438 161.082031 C 240.148438 190.171875 216.421875 213.734375 187.496094 213.734375 Z M 187.496094 111.679688 C 160.195312 111.679688 138.09375 133.78125 138.09375 161.082031 C 138.09375 188.382812 160.195312 210.484375 187.496094 210.484375 C 214.796875 210.484375 236.898438 188.382812 236.898438 161.082031 C 236.898438 133.78125 214.632812 111.679688 187.496094 111.679688 Z M 187.496094 111.679688 " fill-opacity="1" fill-rule="nonzero"/></g><g clip-path="url(#51bcb33615)"><path fill="#05927d" d="M 226.855469 155.875 C 226.03125 155.050781 224.898438 154.6875 223.765625 154.878906 C 222.613281 155.070312 221.65625 155.761719 221.136719 156.796875 L 215.898438 167.273438 C 215.589844 167.90625 215.167969 168.464844 214.59375 169.058594 C 214.496094 169.175781 214.421875 169.289062 214.324219 169.40625 C 211.867188 167.445312 208.375 167.101562 205.441406 168.75 C 203.386719 170.480469 200.507812 172.070312 196.785156 173.53125 C 194.464844 174.816406 192.890625 177.15625 192.566406 179.785156 L 191.28125 190.070312 L 189.320312 190.070312 L 189.320312 199.339844 L 211.5625 199.339844 L 211.5625 190.070312 L 210.832031 190.070312 L 221.40625 178 C 222.191406 177.097656 222.769531 176.0625 223.113281 174.910156 L 227.757812 159.425781 C 228.121094 158.160156 227.777344 156.796875 226.855469 155.875 Z M 209.699219 197.476562 L 191.164062 197.476562 L 191.164062 191.914062 L 209.699219 191.914062 Z M 225.972656 158.890625 L 221.328125 174.355469 C 221.0625 175.257812 220.621094 176.0625 220.003906 176.753906 L 208.375 190.050781 L 193.179688 190.050781 L 194.425781 179.996094 C 194.675781 177.945312 195.902344 176.140625 197.59375 175.179688 C 201.390625 173.703125 204.441406 171.996094 206.515625 170.230469 C 208.664062 169.039062 211.332031 169.308594 213.210938 170.824219 C 210.351562 174.394531 207.511719 177.097656 204.578125 179.074219 L 203.808594 179.59375 L 204.847656 181.128906 L 205.613281 180.609375 C 209.222656 178.210938 212.65625 174.777344 216.015625 170.230469 C 216.648438 169.597656 217.164062 168.867188 217.566406 168.0625 L 222.808594 157.582031 C 223.054688 157.085938 223.515625 156.738281 224.074219 156.664062 C 224.628906 156.585938 225.167969 156.757812 225.550781 157.144531 C 225.992188 157.621094 226.144531 158.273438 225.972656 158.890625 Z M 225.972656 158.890625 " fill-opacity="1" fill-rule="nonzero"/></g><g clip-path="url(#0c8843c4e7)"><path fill="#05927d" d="M 182.394531 179.785156 C 182.070312 177.15625 180.496094 174.816406 178.058594 173.472656 C 174.429688 172.050781 171.574219 170.460938 169.367188 168.636719 C 166.5625 167.082031 163.089844 167.429688 160.632812 169.40625 C 160.519531 169.25 160.402344 169.117188 160.289062 168.964844 C 159.789062 168.464844 159.386719 167.90625 159.082031 167.273438 L 153.839844 156.796875 C 153.324219 155.761719 152.363281 155.050781 151.230469 154.878906 C 150.082031 154.6875 148.949219 155.050781 148.140625 155.875 C 147.222656 156.796875 146.875 158.160156 147.242188 159.425781 L 151.863281 174.890625 C 152.210938 176.042969 152.785156 177.078125 153.574219 177.980469 L 164.144531 190.070312 L 163.378906 190.070312 L 163.378906 199.339844 L 185.617188 199.339844 L 185.617188 190.070312 L 183.679688 190.070312 Z M 154.972656 176.773438 C 154.359375 176.0625 153.917969 175.257812 153.648438 174.375 L 148.988281 158.890625 C 148.8125 158.273438 148.96875 157.621094 149.410156 157.179688 C 149.8125 156.777344 150.347656 156.605469 150.90625 156.703125 C 151.460938 156.796875 151.921875 157.125 152.171875 157.621094 L 157.410156 168.097656 C 157.8125 168.90625 158.332031 169.632812 158.886719 170.171875 C 162.34375 174.816406 165.777344 178.25 169.382812 180.648438 L 170.152344 181.167969 L 171.1875 179.632812 L 170.421875 179.113281 C 167.484375 177.15625 164.664062 174.46875 161.785156 170.863281 C 163.667969 169.347656 166.316406 169.058594 168.347656 170.152344 C 170.554688 172.015625 173.605469 173.722656 177.308594 175.140625 C 179.113281 176.140625 180.339844 177.960938 180.589844 180.015625 L 181.839844 190.070312 L 166.640625 190.070312 Z M 183.757812 197.476562 L 165.238281 197.476562 L 165.238281 191.914062 L 183.777344 191.914062 L 183.777344 197.476562 Z M 183.757812 197.476562 " fill-opacity="1" fill-rule="nonzero"/></g><path fill="#05927d" d="M 210.890625 152.804688 C 217.355469 146.339844 217.355469 135.785156 210.890625 129.320312 C 204.441406 122.871094 193.945312 122.851562 187.480469 129.242188 C 180.992188 122.832031 170.515625 122.851562 164.070312 129.320312 C 157.601562 135.785156 157.601562 146.339844 164.070312 152.804688 L 184.488281 173.242188 C 185.3125 174.066406 186.386719 174.46875 187.480469 174.46875 C 188.574219 174.46875 189.648438 174.066406 190.472656 173.242188 Z M 185.792969 171.9375 L 165.355469 151.5 C 162.574219 148.71875 161.039062 145.015625 161.039062 141.0625 C 161.039062 137.109375 162.574219 133.40625 165.355469 130.625 C 168.234375 127.746094 172.011719 126.304688 175.792969 126.304688 C 179.574219 126.304688 183.355469 127.746094 186.234375 130.625 C 186.921875 131.3125 188.035156 131.3125 188.707031 130.625 C 194.464844 124.867188 203.828125 124.867188 209.585938 130.625 C 212.367188 133.40625 213.902344 137.109375 213.902344 141.0625 C 213.902344 145.015625 212.367188 148.71875 209.585938 151.5 L 189.148438 171.9375 C 188.246094 172.820312 186.691406 172.820312 185.792969 171.9375 Z M 185.792969 171.9375 " fill-opacity="1" fill-rule="nonzero"/><path fill="#05927d" d="M 191.183594 138.183594 L 183.777344 138.183594 L 183.777344 143.75 L 178.210938 143.75 L 178.210938 151.15625 L 183.777344 151.15625 L 183.777344 156.71875 L 191.183594 156.71875 L 191.183594 151.15625 L 196.75 151.15625 L 196.75 143.75 L 191.183594 143.75 Z M 194.886719 145.589844 L 194.886719 149.292969 L 189.320312 149.292969 L 189.320312 154.859375 L 185.617188 154.859375 L 185.617188 149.292969 L 180.054688 149.292969 L 180.054688 145.589844 L 185.617188 145.589844 L 185.617188 140.027344 L 189.320312 140.027344 L 189.320312 145.589844 Z M 194.886719 145.589844 " fill-opacity="1" fill-rule="nonzero"/><g fill="#05927d" fill-opacity="1"><g transform="translate(115.797376, 263.118806)"><g><path d="M 9.59375 0 L 9.59375 -5.5625 L 5.046875 -5.5625 L 5.046875 0 L 1.46875 0 L 1.46875 -14.1875 L 5.046875 -14.1875 L 5.046875 -8.65625 L 9.59375 -8.65625 L 9.59375 -14.1875 L 13.171875 -14.1875 L 13.171875 0 Z M 9.59375 0 "/></g></g></g><g fill="#05927d" fill-opacity="1"><g transform="translate(132.668899, 263.118806)"><g><path d="M 1.5 0 L 1.5 -14.1875 L 11.578125 -14.1875 L 11.578125 -11.28125 L 5.09375 -11.28125 L 5.09375 -8.625 L 10.578125 -8.625 L 10.578125 -5.71875 L 5.09375 -5.71875 L 5.09375 -2.90625 L 11.578125 -2.90625 L 11.578125 0 Z M 1.5 0 "/></g></g></g><g fill="#05927d" fill-opacity="1"><g transform="translate(147.581055, 263.118806)"><g><path d="M 10.453125 0 L 9.609375 -2.6875 L 4.5625 -2.6875 L 3.75 0 L 0.171875 0 L 4.703125 -14.1875 L 9.5625 -14.1875 L 14.109375 0 Z M 7.109375 -11.015625 L 7.015625 -11.015625 L 5.390625 -5.59375 L 8.765625 -5.59375 Z M 7.109375 -11.015625 "/></g></g></g><g fill="#05927d" fill-opacity="1"><g transform="translate(164.081335, 263.118806)"><g><path d="M 1.5 0 L 1.5 -14.1875 L 5.09375 -14.1875 L 5.09375 -3.046875 L 10.71875 -3.046875 L 10.71875 0 Z M 1.5 0 "/></g></g></g><g fill="#05927d" fill-opacity="1"><g transform="translate(177.508492, 263.118806)"><g><path d="M 4.25 0 L 4.25 -11.140625 L 0.328125 -11.140625 L 0.328125 -14.1875 L 11.78125 -14.1875 L 11.78125 -11.140625 L 7.84375 -11.140625 L 7.84375 0 Z M 4.25 0 "/></g></g></g><g fill="#05927d" fill-opacity="1"><g transform="translate(191.822521, 263.118806)"><g><path d="M 9.59375 0 L 9.59375 -5.5625 L 5.046875 -5.5625 L 5.046875 0 L 1.46875 0 L 1.46875 -14.1875 L 5.046875 -14.1875 L 5.046875 -8.65625 L 9.59375 -8.65625 L 9.59375 -14.1875 L 13.171875 -14.1875 L 13.171875 0 Z M 9.59375 0 "/></g></g></g><g fill="#05927d" fill-opacity="1"><g transform="translate(208.694041, 263.118806)"><g><path d="M 10.953125 -0.1875 C 10.484375 -0.09375 9.894531 -0.0078125 9.1875 0.0625 C 8.476562 0.132812 7.816406 0.171875 7.203125 0.171875 C 5.410156 0.171875 4.085938 -0.046875 3.234375 -0.484375 C 2.378906 -0.929688 1.816406 -1.648438 1.546875 -2.640625 C 1.273438 -3.628906 1.140625 -5.113281 1.140625 -7.09375 C 1.140625 -9.050781 1.28125 -10.523438 1.5625 -11.515625 C 1.84375 -12.503906 2.40625 -13.222656 3.25 -13.671875 C 4.101562 -14.128906 5.421875 -14.359375 7.203125 -14.359375 C 7.816406 -14.359375 8.46875 -14.316406 9.15625 -14.234375 C 9.84375 -14.160156 10.414062 -14.070312 10.875 -13.96875 L 10.875 -11.234375 C 9.46875 -11.378906 8.535156 -11.453125 8.078125 -11.453125 C 6.953125 -11.453125 6.175781 -11.363281 5.75 -11.1875 C 5.320312 -11.019531 5.050781 -10.660156 4.9375 -10.109375 C 4.820312 -9.566406 4.765625 -8.5625 4.765625 -7.09375 C 4.765625 -5.625 4.820312 -4.617188 4.9375 -4.078125 C 5.050781 -3.535156 5.320312 -3.175781 5.75 -3 C 6.175781 -2.832031 6.953125 -2.75 8.078125 -2.75 C 9.097656 -2.75 10.054688 -2.816406 10.953125 -2.953125 Z M 10.953125 -0.1875 "/></g></g></g><g fill="#05927d" fill-opacity="1"><g transform="translate(222.760579, 263.118806)"><g><path d="M 10.453125 0 L 9.609375 -2.6875 L 4.5625 -2.6875 L 3.75 0 L 0.171875 0 L 4.703125 -14.1875 L 9.5625 -14.1875 L 14.109375 0 Z M 7.109375 -11.015625 L 7.015625 -11.015625 L 5.390625 -5.59375 L 8.765625 -5.59375 Z M 7.109375 -11.015625 "/></g></g></g><g fill="#05927d" fill-opacity="1"><g transform="translate(239.260853, 263.118806)"><g><path d="M 9.453125 0 L 7.59375 -4.96875 L 5.09375 -4.96875 L 5.09375 0 L 1.5 0 L 1.5 -14.1875 L 8.3125 -14.1875 C 9.613281 -14.1875 10.597656 -14.003906 11.265625 -13.640625 C 11.929688 -13.273438 12.367188 -12.769531 12.578125 -12.125 C 12.796875 -11.488281 12.90625 -10.632812 12.90625 -9.5625 C 12.90625 -8.570312 12.773438 -7.710938 12.515625 -6.984375 C 12.265625 -6.265625 11.765625 -5.738281 11.015625 -5.40625 L 13.203125 0 Z M 6.953125 -7.8125 C 7.691406 -7.8125 8.21875 -7.851562 8.53125 -7.9375 C 8.84375 -8.019531 9.046875 -8.175781 9.140625 -8.40625 C 9.234375 -8.632812 9.28125 -9.015625 9.28125 -9.546875 C 9.28125 -10.097656 9.238281 -10.488281 9.15625 -10.71875 C 9.070312 -10.945312 8.875 -11.097656 8.5625 -11.171875 C 8.257812 -11.253906 7.734375 -11.296875 6.984375 -11.296875 L 5.09375 -11.296875 L 5.09375 -7.8125 Z M 6.953125 -7.8125 "/></g></g></g><g fill="#05927d" fill-opacity="1"><g transform="translate(255.493003, 263.118806)"><g><path d="M 1.5 0 L 1.5 -14.1875 L 11.578125 -14.1875 L 11.578125 -11.28125 L 5.09375 -11.28125 L 5.09375 -8.625 L 10.578125 -8.625 L 10.578125 -5.71875 L 5.09375 -5.71875 L 5.09375 -2.90625 L 11.578125 -2.90625 L 11.578125 0 Z M 1.5 0 "/></g></g></g><g fill="#05927d" fill-opacity="1"><g transform="translate(129.21108, 237.480292)"><g><path d="M 7.46875 0.1875 C 5.226562 0.1875 3.242188 0.0546875 1.515625 -0.203125 L 1.515625 -3.328125 C 3.390625 -3.148438 4.96875 -3.0625 6.25 -3.0625 C 7 -3.0625 7.570312 -3.085938 7.96875 -3.140625 C 8.375 -3.203125 8.660156 -3.304688 8.828125 -3.453125 C 8.984375 -3.566406 9.078125 -3.710938 9.109375 -3.890625 C 9.148438 -4.066406 9.171875 -4.316406 9.171875 -4.640625 C 9.171875 -5.023438 9.140625 -5.300781 9.078125 -5.46875 C 9.015625 -5.632812 8.890625 -5.753906 8.703125 -5.828125 C 8.523438 -5.898438 8.207031 -5.960938 7.75 -6.015625 L 4.828125 -6.390625 C 3.785156 -6.515625 2.988281 -6.78125 2.4375 -7.1875 C 1.894531 -7.59375 1.53125 -8.113281 1.34375 -8.75 C 1.15625 -9.394531 1.0625 -10.203125 1.0625 -11.171875 C 1.0625 -12.535156 1.3125 -13.566406 1.8125 -14.265625 C 2.320312 -14.972656 3 -15.4375 3.84375 -15.65625 C 4.695312 -15.882812 5.785156 -16 7.109375 -16 C 8.066406 -16 8.945312 -15.957031 9.75 -15.875 C 10.5625 -15.800781 11.441406 -15.679688 12.390625 -15.515625 L 12.390625 -12.453125 C 10.566406 -12.648438 9.070312 -12.75 7.90625 -12.75 C 6.675781 -12.75 5.878906 -12.660156 5.515625 -12.484375 C 5.316406 -12.390625 5.191406 -12.257812 5.140625 -12.09375 C 5.085938 -11.925781 5.0625 -11.6875 5.0625 -11.375 C 5.0625 -10.988281 5.085938 -10.710938 5.140625 -10.546875 C 5.191406 -10.390625 5.304688 -10.273438 5.484375 -10.203125 C 5.660156 -10.140625 5.96875 -10.078125 6.40625 -10.015625 L 9.765625 -9.609375 C 10.441406 -9.535156 11 -9.394531 11.4375 -9.1875 C 11.875 -8.988281 12.238281 -8.65625 12.53125 -8.1875 C 12.96875 -7.519531 13.1875 -6.46875 13.1875 -5.03125 C 13.1875 -3.53125 12.945312 -2.398438 12.46875 -1.640625 C 12 -0.878906 11.363281 -0.382812 10.5625 -0.15625 C 9.769531 0.0703125 8.738281 0.1875 7.46875 0.1875 Z M 7.46875 0.1875 "/></g></g></g><g fill="#05927d" fill-opacity="1"><g transform="translate(153.014271, 237.480292)"><g><path d="M 15.140625 0 L 15.140625 -10.0625 L 14.984375 -10.0625 L 11.609375 0 L 8.890625 0 L 5.515625 -10.0625 L 5.359375 -10.0625 L 5.359375 0 L 1.625 0 L 1.625 -15.8125 L 7.125 -15.8125 L 10.25 -6.6875 L 10.40625 -6.6875 L 13.515625 -15.8125 L 18.984375 -15.8125 L 18.984375 0 Z M 15.140625 0 "/></g></g></g><g fill="#05927d" fill-opacity="1"><g transform="translate(183.179828, 237.480292)"><g><path d="M 11.65625 0 L 10.703125 -2.984375 L 5.078125 -2.984375 L 4.1875 0 L 0.1875 0 L 5.234375 -15.8125 L 10.671875 -15.8125 L 15.71875 0 Z M 7.921875 -12.28125 L 7.8125 -12.28125 L 6 -6.234375 L 9.765625 -6.234375 Z M 7.921875 -12.28125 "/></g></g></g><g fill="#05927d" fill-opacity="1"><g transform="translate(208.636768, 237.480292)"><g><path d="M 10.53125 0 L 8.453125 -5.546875 L 5.671875 -5.546875 L 5.671875 0 L 1.671875 0 L 1.671875 -15.8125 L 9.265625 -15.8125 C 10.722656 -15.8125 11.820312 -15.609375 12.5625 -15.203125 C 13.300781 -14.796875 13.789062 -14.234375 14.03125 -13.515625 C 14.269531 -12.804688 14.390625 -11.859375 14.390625 -10.671875 C 14.390625 -9.566406 14.242188 -8.609375 13.953125 -7.796875 C 13.671875 -6.984375 13.113281 -6.390625 12.28125 -6.015625 L 14.703125 0 Z M 7.75 -8.71875 C 8.570312 -8.71875 9.15625 -8.757812 9.5 -8.84375 C 9.84375 -8.9375 10.066406 -9.109375 10.171875 -9.359375 C 10.285156 -9.617188 10.34375 -10.046875 10.34375 -10.640625 C 10.34375 -11.253906 10.296875 -11.6875 10.203125 -11.9375 C 10.109375 -12.1875 9.890625 -12.359375 9.546875 -12.453125 C 9.203125 -12.546875 8.617188 -12.59375 7.796875 -12.59375 L 5.671875 -12.59375 L 5.671875 -8.71875 Z M 7.75 -8.71875 "/></g></g></g><g fill="#05927d" fill-opacity="1"><g transform="translate(233.795126, 237.480292)"><g><path d="M 4.734375 0 L 4.734375 -12.40625 L 0.375 -12.40625 L 0.375 -15.8125 L 13.125 -15.8125 L 13.125 -12.40625 L 8.734375 -12.40625 L 8.734375 0 Z M 4.734375 0 "/></g></g></g></svg>