<svg xmlns="http://www.w3.org/2000/svg" xmlns:xlink="http://www.w3.org/1999/xlink" width="500" zoomAndPan="magnify" viewBox="0 0 375 374.999991" height="500" preserveAspectRatio="xMidYMid meet" version="1.0"><defs><g/><clipPath id="65939f0748"><path d="M 261.84375 146.179688 L 308.882812 146.179688 L 308.882812 193.21875 L 261.84375 193.21875 Z M 261.84375 146.179688 " clip-rule="nonzero"/></clipPath><clipPath id="91a01dfab8"><path d="M 286 167 L 304 167 L 304 187.386719 L 286 187.386719 Z M 286 167 " clip-rule="nonzero"/></clipPath><clipPath id="ae74f1a80a"><path d="M 267.253906 167 L 285 167 L 285 187.386719 L 267.253906 187.386719 Z M 267.253906 167 " clip-rule="nonzero"/></clipPath></defs><g clip-path="url(#65939f0748)"><path fill="#05927d" d="M 285.523438 193.539062 C 272.441406 193.539062 261.84375 182.867188 261.84375 169.859375 C 261.84375 156.847656 272.441406 146.179688 285.523438 146.179688 C 298.605469 146.179688 309.203125 156.777344 309.203125 169.859375 C 309.203125 182.941406 298.53125 193.539062 285.523438 193.539062 Z M 285.523438 147.640625 C 273.242188 147.640625 263.304688 157.578125 263.304688 169.859375 C 263.304688 182.136719 273.242188 192.074219 285.523438 192.074219 C 297.800781 192.074219 307.742188 182.136719 307.742188 169.859375 C 307.742188 157.578125 297.726562 147.640625 285.523438 147.640625 Z M 285.523438 147.640625 " fill-opacity="1" fill-rule="nonzero"/></g><g clip-path="url(#91a01dfab8)"><path fill="#05927d" d="M 303.210938 167.515625 C 302.839844 167.144531 302.332031 166.980469 301.824219 167.066406 C 301.304688 167.152344 300.875 167.464844 300.640625 167.929688 L 298.285156 172.640625 C 298.148438 172.925781 297.957031 173.175781 297.699219 173.441406 C 297.65625 173.496094 297.621094 173.546875 297.578125 173.597656 C 296.472656 172.71875 294.902344 172.5625 293.582031 173.304688 C 292.660156 174.082031 291.367188 174.796875 289.691406 175.453125 C 288.648438 176.03125 287.941406 177.082031 287.792969 178.265625 L 287.21875 182.890625 L 286.335938 182.890625 L 286.335938 187.054688 L 296.335938 187.054688 L 296.335938 182.890625 L 296.007812 182.890625 L 300.761719 177.460938 C 301.113281 177.058594 301.375 176.589844 301.527344 176.074219 L 303.617188 169.113281 C 303.78125 168.542969 303.625 167.929688 303.210938 167.515625 Z M 295.5 186.21875 L 287.164062 186.21875 L 287.164062 183.71875 L 295.5 183.71875 Z M 302.8125 168.871094 L 300.726562 175.824219 C 300.605469 176.230469 300.40625 176.589844 300.132812 176.902344 L 294.902344 182.878906 L 288.070312 182.878906 L 288.632812 178.359375 C 288.742188 177.4375 289.296875 176.625 290.054688 176.195312 C 291.761719 175.53125 293.136719 174.761719 294.066406 173.96875 C 295.03125 173.433594 296.230469 173.554688 297.078125 174.238281 C 295.792969 175.839844 294.515625 177.058594 293.195312 177.945312 L 292.851562 178.179688 L 293.316406 178.867188 L 293.660156 178.636719 C 295.28125 177.558594 296.828125 176.011719 298.335938 173.96875 C 298.621094 173.683594 298.855469 173.355469 299.035156 172.992188 L 301.390625 168.285156 C 301.503906 168.058594 301.710938 167.902344 301.960938 167.871094 C 302.210938 167.835938 302.453125 167.914062 302.625 168.085938 C 302.824219 168.300781 302.890625 168.59375 302.8125 168.871094 Z M 302.8125 168.871094 " fill-opacity="1" fill-rule="nonzero"/></g><g clip-path="url(#ae74f1a80a)"><path fill="#05927d" d="M 283.222656 178.265625 C 283.074219 177.082031 282.367188 176.03125 281.273438 175.425781 C 279.640625 174.789062 278.355469 174.074219 277.363281 173.253906 C 276.105469 172.554688 274.542969 172.710938 273.441406 173.597656 C 273.386719 173.527344 273.335938 173.46875 273.285156 173.398438 C 273.058594 173.175781 272.878906 172.925781 272.742188 172.640625 L 270.386719 167.929688 C 270.152344 167.464844 269.722656 167.144531 269.210938 167.066406 C 268.695312 166.980469 268.1875 167.144531 267.824219 167.515625 C 267.410156 167.929688 267.253906 168.542969 267.417969 169.113281 L 269.496094 176.066406 C 269.652344 176.582031 269.910156 177.046875 270.265625 177.453125 L 275.019531 182.890625 L 274.671875 182.890625 L 274.671875 187.054688 L 284.671875 187.054688 L 284.671875 182.890625 L 283.800781 182.890625 Z M 270.894531 176.910156 C 270.617188 176.589844 270.421875 176.230469 270.300781 175.832031 L 268.203125 168.871094 C 268.125 168.59375 268.195312 168.300781 268.394531 168.101562 C 268.574219 167.921875 268.816406 167.84375 269.066406 167.886719 C 269.316406 167.929688 269.523438 168.078125 269.636719 168.300781 L 271.992188 173.011719 C 272.171875 173.375 272.40625 173.703125 272.65625 173.941406 C 274.207031 176.03125 275.75 177.574219 277.375 178.652344 L 277.71875 178.886719 L 278.183594 178.195312 L 277.839844 177.964844 C 276.519531 177.082031 275.25 175.875 273.957031 174.253906 C 274.800781 173.570312 275.992188 173.441406 276.90625 173.933594 C 277.898438 174.769531 279.269531 175.539062 280.9375 176.175781 C 281.746094 176.625 282.300781 177.445312 282.410156 178.367188 L 282.972656 182.890625 L 276.140625 182.890625 Z M 283.835938 186.21875 L 275.511719 186.21875 L 275.511719 183.71875 L 283.84375 183.71875 L 283.84375 186.21875 Z M 283.835938 186.21875 " fill-opacity="1" fill-rule="nonzero"/></g><path fill="#05927d" d="M 296.035156 166.136719 C 298.941406 163.226562 298.941406 158.484375 296.035156 155.578125 C 293.136719 152.675781 288.417969 152.667969 285.507812 155.542969 C 282.59375 152.660156 277.882812 152.667969 274.984375 155.578125 C 272.078125 158.484375 272.078125 163.226562 274.984375 166.136719 L 284.164062 175.324219 C 284.535156 175.695312 285.015625 175.875 285.507812 175.875 C 286 175.875 286.484375 175.695312 286.855469 175.324219 Z M 284.75 174.738281 L 275.5625 165.550781 C 274.3125 164.296875 273.621094 162.632812 273.621094 160.855469 C 273.621094 159.078125 274.3125 157.414062 275.5625 156.164062 C 276.855469 154.867188 278.554688 154.222656 280.253906 154.222656 C 281.953125 154.222656 283.652344 154.867188 284.949219 156.164062 C 285.257812 156.472656 285.757812 156.472656 286.0625 156.164062 C 288.648438 153.574219 292.859375 153.574219 295.445312 156.164062 C 296.699219 157.414062 297.386719 159.078125 297.386719 160.855469 C 297.386719 162.632812 296.699219 164.296875 295.445312 165.550781 L 286.257812 174.738281 C 285.855469 175.132812 285.15625 175.132812 284.75 174.738281 Z M 284.75 174.738281 " fill-opacity="1" fill-rule="nonzero"/><path fill="#05927d" d="M 287.171875 159.5625 L 283.84375 159.5625 L 283.84375 162.0625 L 281.34375 162.0625 L 281.34375 165.394531 L 283.84375 165.394531 L 283.84375 167.894531 L 287.171875 167.894531 L 287.171875 165.394531 L 289.675781 165.394531 L 289.675781 162.0625 L 287.171875 162.0625 Z M 288.839844 162.890625 L 288.839844 164.558594 L 286.335938 164.558594 L 286.335938 167.058594 L 284.671875 167.058594 L 284.671875 164.558594 L 282.171875 164.558594 L 282.171875 162.890625 L 284.671875 162.890625 L 284.671875 160.390625 L 286.335938 160.390625 L 286.335938 162.890625 Z M 288.839844 162.890625 " fill-opacity="1" fill-rule="nonzero"/><g fill="#05927d" fill-opacity="1"><g transform="translate(123.831764, 162.198458)"><g><path d="M 6.78125 0.171875 C 4.75 0.171875 2.945312 0.0507812 1.375 -0.1875 L 1.375 -3.015625 C 3.070312 -2.847656 4.503906 -2.765625 5.671875 -2.765625 C 6.347656 -2.765625 6.867188 -2.789062 7.234375 -2.84375 C 7.597656 -2.90625 7.851562 -3 8 -3.125 C 8.144531 -3.238281 8.234375 -3.375 8.265625 -3.53125 C 8.296875 -3.6875 8.3125 -3.910156 8.3125 -4.203125 C 8.3125 -4.554688 8.285156 -4.804688 8.234375 -4.953125 C 8.179688 -5.109375 8.070312 -5.21875 7.90625 -5.28125 C 7.738281 -5.34375 7.445312 -5.40625 7.03125 -5.46875 L 4.375 -5.796875 C 3.425781 -5.910156 2.707031 -6.148438 2.21875 -6.515625 C 1.726562 -6.878906 1.394531 -7.351562 1.21875 -7.9375 C 1.039062 -8.519531 0.953125 -9.25 0.953125 -10.125 C 0.953125 -11.363281 1.179688 -12.300781 1.640625 -12.9375 C 2.097656 -13.582031 2.710938 -14.003906 3.484375 -14.203125 C 4.253906 -14.398438 5.238281 -14.5 6.4375 -14.5 C 7.3125 -14.5 8.113281 -14.460938 8.84375 -14.390625 C 9.570312 -14.328125 10.367188 -14.21875 11.234375 -14.0625 L 11.234375 -11.296875 C 9.578125 -11.472656 8.222656 -11.5625 7.171875 -11.5625 C 6.054688 -11.5625 5.332031 -11.476562 5 -11.3125 C 4.820312 -11.226562 4.707031 -11.109375 4.65625 -10.953125 C 4.601562 -10.804688 4.578125 -10.59375 4.578125 -10.3125 C 4.578125 -9.96875 4.601562 -9.722656 4.65625 -9.578125 C 4.707031 -9.429688 4.8125 -9.328125 4.96875 -9.265625 C 5.125 -9.203125 5.40625 -9.144531 5.8125 -9.09375 L 8.859375 -8.71875 C 9.472656 -8.644531 9.976562 -8.515625 10.375 -8.328125 C 10.769531 -8.148438 11.097656 -7.847656 11.359375 -7.421875 C 11.765625 -6.828125 11.96875 -5.875 11.96875 -4.5625 C 11.96875 -3.195312 11.75 -2.171875 11.3125 -1.484375 C 10.882812 -0.796875 10.304688 -0.347656 9.578125 -0.140625 C 8.859375 0.0664062 7.925781 0.171875 6.78125 0.171875 Z M 6.78125 0.171875 "/></g></g></g><g fill="#05927d" fill-opacity="1"><g transform="translate(139.004755, 162.198458)"><g><path d="M 13.734375 0 L 13.734375 -9.125 L 13.59375 -9.125 L 10.53125 0 L 8.0625 0 L 5 -9.125 L 4.859375 -9.125 L 4.859375 0 L 1.484375 0 L 1.484375 -14.34375 L 6.46875 -14.34375 L 9.296875 -6.0625 L 9.4375 -6.0625 L 12.25 -14.34375 L 17.21875 -14.34375 L 17.21875 0 Z M 13.734375 0 "/></g></g></g><g fill="#05927d" fill-opacity="1"><g transform="translate(159.950861, 162.198458)"><g><path d="M 10.5625 0 L 9.71875 -2.703125 L 4.609375 -2.703125 L 3.796875 0 L 0.171875 0 L 4.75 -14.34375 L 9.671875 -14.34375 L 14.25 0 Z M 7.1875 -11.125 L 7.09375 -11.125 L 5.4375 -5.65625 L 8.859375 -5.65625 Z M 7.1875 -11.125 "/></g></g></g><g fill="#05927d" fill-opacity="1"><g transform="translate(176.624449, 162.198458)"><g><path d="M 9.546875 0 L 7.671875 -5.015625 L 5.140625 -5.015625 L 5.140625 0 L 1.515625 0 L 1.515625 -14.34375 L 8.40625 -14.34375 C 9.71875 -14.34375 10.710938 -14.15625 11.390625 -13.78125 C 12.066406 -13.414062 12.507812 -12.910156 12.71875 -12.265625 C 12.9375 -11.617188 13.046875 -10.753906 13.046875 -9.671875 C 13.046875 -8.671875 12.914062 -7.800781 12.65625 -7.0625 C 12.40625 -6.332031 11.894531 -5.800781 11.125 -5.46875 L 13.34375 0 Z M 7.03125 -7.90625 C 7.78125 -7.90625 8.3125 -7.945312 8.625 -8.03125 C 8.9375 -8.113281 9.140625 -8.269531 9.234375 -8.5 C 9.328125 -8.726562 9.375 -9.113281 9.375 -9.65625 C 9.375 -10.207031 9.332031 -10.597656 9.25 -10.828125 C 9.164062 -11.054688 8.96875 -11.210938 8.65625 -11.296875 C 8.34375 -11.378906 7.8125 -11.421875 7.0625 -11.421875 L 5.140625 -11.421875 L 5.140625 -7.90625 Z M 7.03125 -7.90625 "/></g></g></g><g fill="#05927d" fill-opacity="1"><g transform="translate(193.027092, 162.198458)"><g><path d="M 4.296875 0 L 4.296875 -11.25 L 0.328125 -11.25 L 0.328125 -14.34375 L 11.90625 -14.34375 L 11.90625 -11.25 L 7.921875 -11.25 L 7.921875 0 Z M 4.296875 0 "/></g></g></g><g fill="#05927d" fill-opacity="1"><g transform="translate(87.536537, 190.997803)"><g><path d="M 9.6875 0 L 9.6875 -5.625 L 5.109375 -5.625 L 5.109375 0 L 1.484375 0 L 1.484375 -14.34375 L 5.109375 -14.34375 L 5.109375 -8.75 L 9.6875 -8.75 L 9.6875 -14.34375 L 13.3125 -14.34375 L 13.3125 0 Z M 9.6875 0 "/></g></g></g><g fill="#05927d" fill-opacity="1"><g transform="translate(104.585268, 190.997803)"><g><path d="M 1.515625 0 L 1.515625 -14.34375 L 11.6875 -14.34375 L 11.6875 -11.40625 L 5.140625 -11.40625 L 5.140625 -8.71875 L 10.6875 -8.71875 L 10.6875 -5.78125 L 5.140625 -5.78125 L 5.140625 -2.9375 L 11.6875 -2.9375 L 11.6875 0 Z M 1.515625 0 "/></g></g></g><g fill="#05927d" fill-opacity="1"><g transform="translate(119.654053, 190.997803)"><g><path d="M 10.5625 0 L 9.71875 -2.703125 L 4.609375 -2.703125 L 3.796875 0 L 0.171875 0 L 4.75 -14.34375 L 9.671875 -14.34375 L 14.25 0 Z M 7.1875 -11.125 L 7.09375 -11.125 L 5.4375 -5.65625 L 8.859375 -5.65625 Z M 7.1875 -11.125 "/></g></g></g><g fill="#05927d" fill-opacity="1"><g transform="translate(136.327641, 190.997803)"><g><path d="M 1.515625 0 L 1.515625 -14.34375 L 5.140625 -14.34375 L 5.140625 -3.078125 L 10.84375 -3.078125 L 10.84375 0 Z M 1.515625 0 "/></g></g></g><g fill="#05927d" fill-opacity="1"><g transform="translate(149.89583, 190.997803)"><g><path d="M 4.296875 0 L 4.296875 -11.25 L 0.328125 -11.25 L 0.328125 -14.34375 L 11.90625 -14.34375 L 11.90625 -11.25 L 7.921875 -11.25 L 7.921875 0 Z M 4.296875 0 "/></g></g></g><g fill="#05927d" fill-opacity="1"><g transform="translate(164.360204, 190.997803)"><g><path d="M 9.6875 0 L 9.6875 -5.625 L 5.109375 -5.625 L 5.109375 0 L 1.484375 0 L 1.484375 -14.34375 L 5.109375 -14.34375 L 5.109375 -8.75 L 9.6875 -8.75 L 9.6875 -14.34375 L 13.3125 -14.34375 L 13.3125 0 Z M 9.6875 0 "/></g></g></g><g fill="#05927d" fill-opacity="1"><g transform="translate(181.408932, 190.997803)"><g><path d="M 11.0625 -0.1875 C 10.59375 -0.09375 10 -0.0078125 9.28125 0.0625 C 8.570312 0.132812 7.90625 0.171875 7.28125 0.171875 C 5.46875 0.171875 4.128906 -0.0507812 3.265625 -0.5 C 2.410156 -0.945312 1.84375 -1.671875 1.5625 -2.671875 C 1.28125 -3.671875 1.140625 -5.171875 1.140625 -7.171875 C 1.140625 -9.140625 1.28125 -10.625 1.5625 -11.625 C 1.851562 -12.625 2.425781 -13.351562 3.28125 -13.8125 C 4.144531 -14.269531 5.476562 -14.5 7.28125 -14.5 C 7.90625 -14.5 8.5625 -14.460938 9.25 -14.390625 C 9.945312 -14.316406 10.523438 -14.222656 10.984375 -14.109375 L 10.984375 -11.359375 C 9.566406 -11.492188 8.628906 -11.5625 8.171875 -11.5625 C 7.035156 -11.5625 6.25 -11.472656 5.8125 -11.296875 C 5.382812 -11.128906 5.109375 -10.769531 4.984375 -10.21875 C 4.867188 -9.675781 4.8125 -8.660156 4.8125 -7.171875 C 4.8125 -5.679688 4.867188 -4.660156 4.984375 -4.109375 C 5.109375 -3.566406 5.382812 -3.207031 5.8125 -3.03125 C 6.25 -2.851562 7.035156 -2.765625 8.171875 -2.765625 C 9.203125 -2.765625 10.164062 -2.835938 11.0625 -2.984375 Z M 11.0625 -0.1875 "/></g></g></g><g fill="#05927d" fill-opacity="1"><g transform="translate(195.623217, 190.997803)"><g><path d="M 10.5625 0 L 9.71875 -2.703125 L 4.609375 -2.703125 L 3.796875 0 L 0.171875 0 L 4.75 -14.34375 L 9.671875 -14.34375 L 14.25 0 Z M 7.1875 -11.125 L 7.09375 -11.125 L 5.4375 -5.65625 L 8.859375 -5.65625 Z M 7.1875 -11.125 "/></g></g></g><g fill="#05927d" fill-opacity="1"><g transform="translate(212.296799, 190.997803)"><g><path d="M 9.546875 0 L 7.671875 -5.015625 L 5.140625 -5.015625 L 5.140625 0 L 1.515625 0 L 1.515625 -14.34375 L 8.40625 -14.34375 C 9.71875 -14.34375 10.710938 -14.15625 11.390625 -13.78125 C 12.066406 -13.414062 12.507812 -12.910156 12.71875 -12.265625 C 12.9375 -11.617188 13.046875 -10.753906 13.046875 -9.671875 C 13.046875 -8.671875 12.914062 -7.800781 12.65625 -7.0625 C 12.40625 -6.332031 11.894531 -5.800781 11.125 -5.46875 L 13.34375 0 Z M 7.03125 -7.90625 C 7.78125 -7.90625 8.3125 -7.945312 8.625 -8.03125 C 8.9375 -8.113281 9.140625 -8.269531 9.234375 -8.5 C 9.328125 -8.726562 9.375 -9.113281 9.375 -9.65625 C 9.375 -10.207031 9.332031 -10.597656 9.25 -10.828125 C 9.164062 -11.054688 8.96875 -11.210938 8.65625 -11.296875 C 8.34375 -11.378906 7.8125 -11.421875 7.0625 -11.421875 L 5.140625 -11.421875 L 5.140625 -7.90625 Z M 7.03125 -7.90625 "/></g></g></g><g fill="#05927d" fill-opacity="1"><g transform="translate(228.699442, 190.997803)"><g><path d="M 1.515625 0 L 1.515625 -14.34375 L 11.6875 -14.34375 L 11.6875 -11.40625 L 5.140625 -11.40625 L 5.140625 -8.71875 L 10.6875 -8.71875 L 10.6875 -5.78125 L 5.140625 -5.78125 L 5.140625 -2.9375 L 11.6875 -2.9375 L 11.6875 0 Z M 1.515625 0 "/></g></g></g></svg>