<svg xmlns="http://www.w3.org/2000/svg" xmlns:xlink="http://www.w3.org/1999/xlink" width="500" zoomAndPan="magnify" viewBox="0 0 375 374.999991" height="500" preserveAspectRatio="xMidYMid meet" version="1.0"><defs><g/><clipPath id="54c128d324"><path d="M 261.84375 189.394531 L 308.882812 189.394531 L 308.882812 236.433594 L 261.84375 236.433594 Z M 261.84375 189.394531 " clip-rule="nonzero"/></clipPath><clipPath id="2622ed5e03"><path d="M 286 210 L 304 210 L 304 230.601562 L 286 230.601562 Z M 286 210 " clip-rule="nonzero"/></clipPath><clipPath id="a76798ef08"><path d="M 267.253906 210 L 285 210 L 285 230.601562 L 267.253906 230.601562 Z M 267.253906 210 " clip-rule="nonzero"/></clipPath></defs><g clip-path="url(#54c128d324)"><path fill="#05927d" d="M 285.523438 236.753906 C 272.441406 236.753906 261.84375 226.082031 261.84375 213.074219 C 261.84375 200.0625 272.441406 189.394531 285.523438 189.394531 C 298.605469 189.394531 309.203125 199.992188 309.203125 213.074219 C 309.203125 226.15625 298.53125 236.753906 285.523438 236.753906 Z M 285.523438 190.855469 C 273.242188 190.855469 263.304688 200.792969 263.304688 213.074219 C 263.304688 225.351562 273.242188 235.289062 285.523438 235.289062 C 297.800781 235.289062 307.742188 225.351562 307.742188 213.074219 C 307.742188 200.792969 297.726562 190.855469 285.523438 190.855469 Z M 285.523438 190.855469 " fill-opacity="1" fill-rule="nonzero"/></g><g clip-path="url(#2622ed5e03)"><path fill="#05927d" d="M 303.210938 210.730469 C 302.839844 210.359375 302.332031 210.195312 301.824219 210.28125 C 301.304688 210.367188 300.875 210.679688 300.640625 211.144531 L 298.285156 215.855469 C 298.148438 216.140625 297.957031 216.390625 297.699219 216.65625 C 297.65625 216.710938 297.621094 216.761719 297.578125 216.8125 C 296.472656 215.933594 294.902344 215.777344 293.582031 216.519531 C 292.660156 217.296875 291.367188 218.011719 289.691406 218.667969 C 288.648438 219.246094 287.941406 220.296875 287.792969 221.480469 L 287.21875 226.105469 L 286.335938 226.105469 L 286.335938 230.269531 L 296.335938 230.269531 L 296.335938 226.105469 L 296.007812 226.105469 L 300.761719 220.679688 C 301.113281 220.273438 301.375 219.804688 301.527344 219.289062 L 303.617188 212.328125 C 303.78125 211.757812 303.625 211.144531 303.210938 210.730469 Z M 295.5 229.433594 L 287.164062 229.433594 L 287.164062 226.933594 L 295.5 226.933594 Z M 302.8125 212.085938 L 300.726562 219.039062 C 300.605469 219.445312 300.40625 219.804688 300.132812 220.117188 L 294.902344 226.09375 L 288.070312 226.09375 L 288.632812 221.574219 C 288.742188 220.652344 289.296875 219.839844 290.054688 219.410156 C 291.761719 218.746094 293.136719 217.976562 294.066406 217.183594 C 295.03125 216.648438 296.230469 216.769531 297.078125 217.453125 C 295.792969 219.054688 294.515625 220.273438 293.195312 221.160156 L 292.851562 221.394531 L 293.316406 222.082031 L 293.660156 221.851562 C 295.28125 220.773438 296.828125 219.226562 298.335938 217.183594 C 298.621094 216.898438 298.855469 216.570312 299.035156 216.210938 L 301.390625 211.5 C 301.503906 211.273438 301.710938 211.117188 301.960938 211.085938 C 302.210938 211.050781 302.453125 211.128906 302.625 211.300781 C 302.824219 211.515625 302.890625 211.808594 302.8125 212.085938 Z M 302.8125 212.085938 " fill-opacity="1" fill-rule="nonzero"/></g><g clip-path="url(#a76798ef08)"><path fill="#05927d" d="M 283.222656 221.480469 C 283.074219 220.296875 282.367188 219.246094 281.273438 218.640625 C 279.640625 218.003906 278.355469 217.289062 277.363281 216.46875 C 276.105469 215.769531 274.542969 215.925781 273.441406 216.8125 C 273.386719 216.742188 273.335938 216.683594 273.285156 216.613281 C 273.058594 216.390625 272.878906 216.140625 272.742188 215.855469 L 270.386719 211.144531 C 270.152344 210.679688 269.722656 210.359375 269.210938 210.28125 C 268.695312 210.195312 268.1875 210.359375 267.824219 210.730469 C 267.410156 211.144531 267.253906 211.757812 267.417969 212.328125 L 269.496094 219.28125 C 269.652344 219.796875 269.910156 220.265625 270.265625 220.667969 L 275.019531 226.105469 L 274.671875 226.105469 L 274.671875 230.269531 L 284.671875 230.269531 L 284.671875 226.105469 L 283.800781 226.105469 Z M 270.894531 220.125 C 270.617188 219.804688 270.421875 219.445312 270.300781 219.046875 L 268.203125 212.085938 C 268.125 211.808594 268.195312 211.515625 268.394531 211.316406 C 268.574219 211.136719 268.816406 211.058594 269.066406 211.101562 C 269.316406 211.144531 269.523438 211.292969 269.636719 211.515625 L 271.992188 216.226562 C 272.171875 216.589844 272.40625 216.917969 272.65625 217.15625 C 274.207031 219.246094 275.75 220.789062 277.375 221.867188 L 277.71875 222.101562 L 278.183594 221.410156 L 277.839844 221.179688 C 276.519531 220.296875 275.25 219.089844 273.957031 217.46875 C 274.800781 216.785156 275.992188 216.65625 276.90625 217.148438 C 277.898438 217.984375 279.269531 218.753906 280.9375 219.390625 C 281.746094 219.839844 282.300781 220.660156 282.410156 221.582031 L 282.972656 226.105469 L 276.140625 226.105469 Z M 283.835938 229.433594 L 275.511719 229.433594 L 275.511719 226.933594 L 283.84375 226.933594 L 283.84375 229.433594 Z M 283.835938 229.433594 " fill-opacity="1" fill-rule="nonzero"/></g><path fill="#05927d" d="M 296.035156 209.351562 C 298.941406 206.441406 298.941406 201.699219 296.035156 198.792969 C 293.136719 195.890625 288.417969 195.882812 285.507812 198.757812 C 282.59375 195.875 277.882812 195.882812 274.984375 198.792969 C 272.078125 201.699219 272.078125 206.441406 274.984375 209.351562 L 284.164062 218.539062 C 284.535156 218.910156 285.015625 219.089844 285.507812 219.089844 C 286 219.089844 286.484375 218.910156 286.855469 218.539062 Z M 284.75 217.953125 L 275.5625 208.765625 C 274.3125 207.511719 273.621094 205.847656 273.621094 204.070312 C 273.621094 202.292969 274.3125 200.628906 275.5625 199.378906 C 276.855469 198.082031 278.554688 197.4375 280.253906 197.4375 C 281.953125 197.4375 283.652344 198.082031 284.949219 199.378906 C 285.257812 199.6875 285.757812 199.6875 286.0625 199.378906 C 288.648438 196.789062 292.859375 196.789062 295.445312 199.378906 C 296.699219 200.628906 297.386719 202.292969 297.386719 204.070312 C 297.386719 205.847656 296.699219 207.511719 295.445312 208.765625 L 286.257812 217.953125 C 285.855469 218.347656 285.15625 218.347656 284.75 217.953125 Z M 284.75 217.953125 " fill-opacity="1" fill-rule="nonzero"/><path fill="#05927d" d="M 287.171875 202.777344 L 283.84375 202.777344 L 283.84375 205.277344 L 281.34375 205.277344 L 281.34375 208.609375 L 283.84375 208.609375 L 283.84375 211.109375 L 287.171875 211.109375 L 287.171875 208.609375 L 289.675781 208.609375 L 289.675781 205.277344 L 287.171875 205.277344 Z M 288.839844 206.105469 L 288.839844 207.773438 L 286.335938 207.773438 L 286.335938 210.273438 L 284.671875 210.273438 L 284.671875 207.773438 L 282.171875 207.773438 L 282.171875 206.105469 L 284.671875 206.105469 L 284.671875 203.605469 L 286.335938 203.605469 L 286.335938 206.105469 Z M 288.839844 206.105469 " fill-opacity="1" fill-rule="nonzero"/><g fill="#05927d" fill-opacity="1"><g transform="translate(123.831764, 205.41334)"><g><path d="M 6.78125 0.171875 C 4.75 0.171875 2.945312 0.0507812 1.375 -0.1875 L 1.375 -3.015625 C 3.070312 -2.847656 4.503906 -2.765625 5.671875 -2.765625 C 6.347656 -2.765625 6.867188 -2.789062 7.234375 -2.84375 C 7.597656 -2.90625 7.851562 -3 8 -3.125 C 8.144531 -3.238281 8.234375 -3.375 8.265625 -3.53125 C 8.296875 -3.6875 8.3125 -3.910156 8.3125 -4.203125 C 8.3125 -4.554688 8.285156 -4.804688 8.234375 -4.953125 C 8.179688 -5.109375 8.070312 -5.21875 7.90625 -5.28125 C 7.738281 -5.34375 7.445312 -5.40625 7.03125 -5.46875 L 4.375 -5.796875 C 3.425781 -5.910156 2.707031 -6.148438 2.21875 -6.515625 C 1.726562 -6.878906 1.394531 -7.351562 1.21875 -7.9375 C 1.039062 -8.519531 0.953125 -9.25 0.953125 -10.125 C 0.953125 -11.363281 1.179688 -12.300781 1.640625 -12.9375 C 2.097656 -13.582031 2.710938 -14.003906 3.484375 -14.203125 C 4.253906 -14.398438 5.238281 -14.5 6.4375 -14.5 C 7.3125 -14.5 8.113281 -14.460938 8.84375 -14.390625 C 9.570312 -14.328125 10.367188 -14.21875 11.234375 -14.0625 L 11.234375 -11.296875 C 9.578125 -11.472656 8.222656 -11.5625 7.171875 -11.5625 C 6.054688 -11.5625 5.332031 -11.476562 5 -11.3125 C 4.820312 -11.226562 4.707031 -11.109375 4.65625 -10.953125 C 4.601562 -10.804688 4.578125 -10.59375 4.578125 -10.3125 C 4.578125 -9.96875 4.601562 -9.722656 4.65625 -9.578125 C 4.707031 -9.429688 4.8125 -9.328125 4.96875 -9.265625 C 5.125 -9.203125 5.40625 -9.144531 5.8125 -9.09375 L 8.859375 -8.71875 C 9.472656 -8.644531 9.976562 -8.515625 10.375 -8.328125 C 10.769531 -8.148438 11.097656 -7.847656 11.359375 -7.421875 C 11.765625 -6.828125 11.96875 -5.875 11.96875 -4.5625 C 11.96875 -3.195312 11.75 -2.171875 11.3125 -1.484375 C 10.882812 -0.796875 10.304688 -0.347656 9.578125 -0.140625 C 8.859375 0.0664062 7.925781 0.171875 6.78125 0.171875 Z M 6.78125 0.171875 "/></g></g></g><g fill="#05927d" fill-opacity="1"><g transform="translate(139.004755, 205.41334)"><g><path d="M 13.734375 0 L 13.734375 -9.125 L 13.59375 -9.125 L 10.53125 0 L 8.0625 0 L 5 -9.125 L 4.859375 -9.125 L 4.859375 0 L 1.484375 0 L 1.484375 -14.34375 L 6.46875 -14.34375 L 9.296875 -6.0625 L 9.4375 -6.0625 L 12.25 -14.34375 L 17.21875 -14.34375 L 17.21875 0 Z M 13.734375 0 "/></g></g></g><g fill="#05927d" fill-opacity="1"><g transform="translate(159.950861, 205.41334)"><g><path d="M 10.5625 0 L 9.71875 -2.703125 L 4.609375 -2.703125 L 3.796875 0 L 0.171875 0 L 4.75 -14.34375 L 9.671875 -14.34375 L 14.25 0 Z M 7.1875 -11.125 L 7.09375 -11.125 L 5.4375 -5.65625 L 8.859375 -5.65625 Z M 7.1875 -11.125 "/></g></g></g><g fill="#05927d" fill-opacity="1"><g transform="translate(176.624449, 205.41334)"><g><path d="M 9.546875 0 L 7.671875 -5.015625 L 5.140625 -5.015625 L 5.140625 0 L 1.515625 0 L 1.515625 -14.34375 L 8.40625 -14.34375 C 9.71875 -14.34375 10.710938 -14.15625 11.390625 -13.78125 C 12.066406 -13.414062 12.507812 -12.910156 12.71875 -12.265625 C 12.9375 -11.617188 13.046875 -10.753906 13.046875 -9.671875 C 13.046875 -8.671875 12.914062 -7.800781 12.65625 -7.0625 C 12.40625 -6.332031 11.894531 -5.800781 11.125 -5.46875 L 13.34375 0 Z M 7.03125 -7.90625 C 7.78125 -7.90625 8.3125 -7.945312 8.625 -8.03125 C 8.9375 -8.113281 9.140625 -8.269531 9.234375 -8.5 C 9.328125 -8.726562 9.375 -9.113281 9.375 -9.65625 C 9.375 -10.207031 9.332031 -10.597656 9.25 -10.828125 C 9.164062 -11.054688 8.96875 -11.210938 8.65625 -11.296875 C 8.34375 -11.378906 7.8125 -11.421875 7.0625 -11.421875 L 5.140625 -11.421875 L 5.140625 -7.90625 Z M 7.03125 -7.90625 "/></g></g></g><g fill="#05927d" fill-opacity="1"><g transform="translate(193.027092, 205.41334)"><g><path d="M 4.296875 0 L 4.296875 -11.25 L 0.328125 -11.25 L 0.328125 -14.34375 L 11.90625 -14.34375 L 11.90625 -11.25 L 7.921875 -11.25 L 7.921875 0 Z M 4.296875 0 "/></g></g></g><g fill="#05927d" fill-opacity="1"><g transform="translate(87.536537, 234.212685)"><g><path d="M 9.6875 0 L 9.6875 -5.625 L 5.109375 -5.625 L 5.109375 0 L 1.484375 0 L 1.484375 -14.34375 L 5.109375 -14.34375 L 5.109375 -8.75 L 9.6875 -8.75 L 9.6875 -14.34375 L 13.3125 -14.34375 L 13.3125 0 Z M 9.6875 0 "/></g></g></g><g fill="#05927d" fill-opacity="1"><g transform="translate(104.585268, 234.212685)"><g><path d="M 1.515625 0 L 1.515625 -14.34375 L 11.6875 -14.34375 L 11.6875 -11.40625 L 5.140625 -11.40625 L 5.140625 -8.71875 L 10.6875 -8.71875 L 10.6875 -5.78125 L 5.140625 -5.78125 L 5.140625 -2.9375 L 11.6875 -2.9375 L 11.6875 0 Z M 1.515625 0 "/></g></g></g><g fill="#05927d" fill-opacity="1"><g transform="translate(119.654053, 234.212685)"><g><path d="M 10.5625 0 L 9.71875 -2.703125 L 4.609375 -2.703125 L 3.796875 0 L 0.171875 0 L 4.75 -14.34375 L 9.671875 -14.34375 L 14.25 0 Z M 7.1875 -11.125 L 7.09375 -11.125 L 5.4375 -5.65625 L 8.859375 -5.65625 Z M 7.1875 -11.125 "/></g></g></g><g fill="#05927d" fill-opacity="1"><g transform="translate(136.327641, 234.212685)"><g><path d="M 1.515625 0 L 1.515625 -14.34375 L 5.140625 -14.34375 L 5.140625 -3.078125 L 10.84375 -3.078125 L 10.84375 0 Z M 1.515625 0 "/></g></g></g><g fill="#05927d" fill-opacity="1"><g transform="translate(149.89583, 234.212685)"><g><path d="M 4.296875 0 L 4.296875 -11.25 L 0.328125 -11.25 L 0.328125 -14.34375 L 11.90625 -14.34375 L 11.90625 -11.25 L 7.921875 -11.25 L 7.921875 0 Z M 4.296875 0 "/></g></g></g><g fill="#05927d" fill-opacity="1"><g transform="translate(164.360204, 234.212685)"><g><path d="M 9.6875 0 L 9.6875 -5.625 L 5.109375 -5.625 L 5.109375 0 L 1.484375 0 L 1.484375 -14.34375 L 5.109375 -14.34375 L 5.109375 -8.75 L 9.6875 -8.75 L 9.6875 -14.34375 L 13.3125 -14.34375 L 13.3125 0 Z M 9.6875 0 "/></g></g></g><g fill="#05927d" fill-opacity="1"><g transform="translate(181.408932, 234.212685)"><g><path d="M 11.0625 -0.1875 C 10.59375 -0.09375 10 -0.0078125 9.28125 0.0625 C 8.570312 0.132812 7.90625 0.171875 7.28125 0.171875 C 5.46875 0.171875 4.128906 -0.0507812 3.265625 -0.5 C 2.410156 -0.945312 1.84375 -1.671875 1.5625 -2.671875 C 1.28125 -3.671875 1.140625 -5.171875 1.140625 -7.171875 C 1.140625 -9.140625 1.28125 -10.625 1.5625 -11.625 C 1.851562 -12.625 2.425781 -13.351562 3.28125 -13.8125 C 4.144531 -14.269531 5.476562 -14.5 7.28125 -14.5 C 7.90625 -14.5 8.5625 -14.460938 9.25 -14.390625 C 9.945312 -14.316406 10.523438 -14.222656 10.984375 -14.109375 L 10.984375 -11.359375 C 9.566406 -11.492188 8.628906 -11.5625 8.171875 -11.5625 C 7.035156 -11.5625 6.25 -11.472656 5.8125 -11.296875 C 5.382812 -11.128906 5.109375 -10.769531 4.984375 -10.21875 C 4.867188 -9.675781 4.8125 -8.660156 4.8125 -7.171875 C 4.8125 -5.679688 4.867188 -4.660156 4.984375 -4.109375 C 5.109375 -3.566406 5.382812 -3.207031 5.8125 -3.03125 C 6.25 -2.851562 7.035156 -2.765625 8.171875 -2.765625 C 9.203125 -2.765625 10.164062 -2.835938 11.0625 -2.984375 Z M 11.0625 -0.1875 "/></g></g></g><g fill="#05927d" fill-opacity="1"><g transform="translate(195.623217, 234.212685)"><g><path d="M 10.5625 0 L 9.71875 -2.703125 L 4.609375 -2.703125 L 3.796875 0 L 0.171875 0 L 4.75 -14.34375 L 9.671875 -14.34375 L 14.25 0 Z M 7.1875 -11.125 L 7.09375 -11.125 L 5.4375 -5.65625 L 8.859375 -5.65625 Z M 7.1875 -11.125 "/></g></g></g><g fill="#05927d" fill-opacity="1"><g transform="translate(212.296799, 234.212685)"><g><path d="M 9.546875 0 L 7.671875 -5.015625 L 5.140625 -5.015625 L 5.140625 0 L 1.515625 0 L 1.515625 -14.34375 L 8.40625 -14.34375 C 9.71875 -14.34375 10.710938 -14.15625 11.390625 -13.78125 C 12.066406 -13.414062 12.507812 -12.910156 12.71875 -12.265625 C 12.9375 -11.617188 13.046875 -10.753906 13.046875 -9.671875 C 13.046875 -8.671875 12.914062 -7.800781 12.65625 -7.0625 C 12.40625 -6.332031 11.894531 -5.800781 11.125 -5.46875 L 13.34375 0 Z M 7.03125 -7.90625 C 7.78125 -7.90625 8.3125 -7.945312 8.625 -8.03125 C 8.9375 -8.113281 9.140625 -8.269531 9.234375 -8.5 C 9.328125 -8.726562 9.375 -9.113281 9.375 -9.65625 C 9.375 -10.207031 9.332031 -10.597656 9.25 -10.828125 C 9.164062 -11.054688 8.96875 -11.210938 8.65625 -11.296875 C 8.34375 -11.378906 7.8125 -11.421875 7.0625 -11.421875 L 5.140625 -11.421875 L 5.140625 -7.90625 Z M 7.03125 -7.90625 "/></g></g></g><g fill="#05927d" fill-opacity="1"><g transform="translate(228.699442, 234.212685)"><g><path d="M 1.515625 0 L 1.515625 -14.34375 L 11.6875 -14.34375 L 11.6875 -11.40625 L 5.140625 -11.40625 L 5.140625 -8.71875 L 10.6875 -8.71875 L 10.6875 -5.78125 L 5.140625 -5.78125 L 5.140625 -2.9375 L 11.6875 -2.9375 L 11.6875 0 Z M 1.515625 0 "/></g></g></g></svg>