<svg xmlns="http://www.w3.org/2000/svg" xmlns:xlink="http://www.w3.org/1999/xlink" width="500" zoomAndPan="magnify" viewBox="0 0 375 374.999991" height="500" preserveAspectRatio="xMidYMid meet" version="1.0"><defs><g/><clipPath id="13728d6cd0"><path d="M 289.703125 143.007812 L 354.921875 143.007812 L 354.921875 208.226562 L 289.703125 208.226562 Z M 289.703125 143.007812 " clip-rule="nonzero"/></clipPath><clipPath id="2538062754"><path d="M 297.207031 171 L 322 171 L 322 200 L 297.207031 200 Z M 297.207031 171 " clip-rule="nonzero"/></clipPath></defs><g clip-path="url(#13728d6cd0)"><path fill="#05927d" d="M 322.535156 208.667969 C 304.394531 208.667969 289.703125 193.875 289.703125 175.839844 C 289.703125 157.800781 304.394531 143.007812 322.535156 143.007812 C 340.671875 143.007812 355.363281 157.699219 355.363281 175.839844 C 355.363281 193.976562 340.570312 208.667969 322.535156 208.667969 Z M 322.535156 145.035156 C 305.511719 145.035156 291.730469 158.816406 291.730469 175.839844 C 291.730469 192.863281 305.511719 206.640625 322.535156 206.640625 C 339.558594 206.640625 353.339844 192.863281 353.339844 175.839844 C 353.339844 158.816406 339.457031 145.035156 322.535156 145.035156 Z M 322.535156 145.035156 " fill-opacity="1" fill-rule="nonzero"/></g><path fill="#05927d" d="M 347.058594 172.589844 C 346.542969 172.078125 345.839844 171.851562 345.132812 171.96875 C 344.414062 172.089844 343.816406 172.519531 343.496094 173.164062 L 340.230469 179.695312 C 340.039062 180.089844 339.773438 180.4375 339.414062 180.808594 C 339.355469 180.878906 339.308594 180.953125 339.25 181.023438 C 337.71875 179.804688 335.539062 179.589844 333.710938 180.617188 C 332.429688 181.695312 330.636719 182.6875 328.316406 183.59375 C 326.867188 184.398438 325.886719 185.855469 325.683594 187.496094 L 324.882812 193.90625 L 323.664062 193.90625 L 323.664062 199.683594 L 337.527344 199.683594 L 337.527344 193.90625 L 337.070312 193.90625 L 343.660156 186.382812 C 344.152344 185.820312 344.511719 185.175781 344.726562 184.457031 L 347.621094 174.804688 C 347.847656 174.015625 347.632812 173.164062 347.058594 172.589844 Z M 336.367188 198.523438 L 324.8125 198.523438 L 324.8125 195.054688 L 336.367188 195.054688 Z M 346.507812 174.46875 L 343.613281 184.109375 C 343.445312 184.671875 343.171875 185.175781 342.789062 185.605469 L 335.539062 193.894531 L 326.066406 193.894531 L 326.84375 187.625 C 327 186.347656 327.765625 185.222656 328.820312 184.625 C 331.1875 183.703125 333.089844 182.636719 334.378906 181.539062 C 335.71875 180.796875 337.382812 180.964844 338.554688 181.910156 C 336.773438 184.132812 335.003906 185.820312 333.171875 187.050781 L 332.695312 187.375 L 333.339844 188.332031 L 333.816406 188.007812 C 336.066406 186.515625 338.207031 184.371094 340.300781 181.539062 C 340.695312 181.144531 341.019531 180.6875 341.269531 180.1875 L 344.535156 173.65625 C 344.691406 173.34375 344.976562 173.128906 345.324219 173.082031 C 345.671875 173.035156 346.007812 173.140625 346.246094 173.382812 C 346.519531 173.679688 346.617188 174.085938 346.507812 174.46875 Z M 346.507812 174.46875 " fill-opacity="1" fill-rule="nonzero"/><g clip-path="url(#2538062754)"><path fill="#05927d" d="M 319.34375 187.496094 C 319.140625 185.855469 318.160156 184.398438 316.640625 183.558594 C 314.382812 182.675781 312.601562 181.679688 311.222656 180.546875 C 309.476562 179.578125 307.3125 179.792969 305.78125 181.023438 C 305.710938 180.929688 305.640625 180.84375 305.566406 180.75 C 305.257812 180.4375 305.003906 180.089844 304.8125 179.695312 L 301.546875 173.164062 C 301.226562 172.519531 300.628906 172.078125 299.921875 171.96875 C 299.203125 171.851562 298.5 172.078125 297.996094 172.589844 C 297.421875 173.164062 297.207031 174.015625 297.433594 174.804688 L 300.316406 184.445312 C 300.53125 185.164062 300.890625 185.808594 301.378906 186.371094 L 307.972656 193.90625 L 307.492188 193.90625 L 307.492188 199.683594 L 321.355469 199.683594 L 321.355469 193.90625 L 320.148438 193.90625 Z M 302.253906 185.617188 C 301.871094 185.175781 301.597656 184.671875 301.429688 184.121094 L 298.523438 174.46875 C 298.414062 174.085938 298.511719 173.679688 298.785156 173.40625 C 299.035156 173.152344 299.371094 173.046875 299.71875 173.105469 C 300.066406 173.164062 300.351562 173.367188 300.507812 173.679688 L 303.773438 180.210938 C 304.023438 180.710938 304.347656 181.167969 304.695312 181.503906 C 306.847656 184.398438 308.988281 186.539062 311.234375 188.03125 L 311.714844 188.355469 L 312.359375 187.398438 L 311.882812 187.074219 C 310.050781 185.855469 308.292969 184.179688 306.5 181.933594 C 307.671875 180.988281 309.324219 180.808594 310.589844 181.492188 C 311.964844 182.652344 313.867188 183.714844 316.175781 184.601562 C 317.300781 185.222656 318.066406 186.359375 318.222656 187.636719 L 319 193.90625 L 309.527344 193.90625 Z M 320.195312 198.523438 L 308.652344 198.523438 L 308.652344 195.054688 L 320.207031 195.054688 L 320.207031 198.523438 Z M 320.195312 198.523438 " fill-opacity="1" fill-rule="nonzero"/></g><path fill="#05927d" d="M 337.105469 170.679688 C 341.136719 166.648438 341.136719 160.070312 337.105469 156.039062 C 333.089844 152.019531 326.546875 152.007812 322.515625 155.988281 C 318.472656 151.996094 311.941406 152.007812 307.921875 156.039062 C 303.890625 160.070312 303.890625 166.648438 307.921875 170.679688 L 320.648438 183.414062 C 321.164062 183.929688 321.832031 184.179688 322.515625 184.179688 C 323.195312 184.179688 323.867188 183.929688 324.382812 183.414062 Z M 321.460938 182.601562 L 308.722656 169.863281 C 306.992188 168.128906 306.035156 165.820312 306.035156 163.359375 C 306.035156 160.894531 306.992188 158.585938 308.722656 156.851562 C 310.519531 155.058594 312.875 154.160156 315.230469 154.160156 C 317.585938 154.160156 319.945312 155.058594 321.738281 156.851562 C 322.167969 157.28125 322.863281 157.28125 323.28125 156.851562 C 326.867188 153.261719 332.707031 153.261719 336.292969 156.851562 C 338.027344 158.585938 338.984375 160.894531 338.984375 163.359375 C 338.984375 165.820312 338.027344 168.128906 336.292969 169.863281 L 323.554688 182.601562 C 322.992188 183.152344 322.023438 183.152344 321.460938 182.601562 Z M 321.460938 182.601562 " fill-opacity="1" fill-rule="nonzero"/><path fill="#05927d" d="M 324.824219 161.5625 L 320.207031 161.5625 L 320.207031 165.03125 L 316.738281 165.03125 L 316.738281 169.648438 L 320.207031 169.648438 L 320.207031 173.117188 L 324.824219 173.117188 L 324.824219 169.648438 L 328.292969 169.648438 L 328.292969 165.03125 L 324.824219 165.03125 Z M 327.132812 166.179688 L 327.132812 168.488281 L 323.664062 168.488281 L 323.664062 171.957031 L 321.355469 171.957031 L 321.355469 168.488281 L 317.886719 168.488281 L 317.886719 166.179688 L 321.355469 166.179688 L 321.355469 162.710938 L 323.664062 162.710938 L 323.664062 166.179688 Z M 327.132812 166.179688 " fill-opacity="1" fill-rule="nonzero"/><g fill="#05927d" fill-opacity="1"><g transform="translate(98.359825, 165.218978)"><g><path d="M 9.390625 0.234375 C 6.578125 0.234375 4.082031 0.0664062 1.90625 -0.265625 L 1.90625 -4.1875 C 4.257812 -3.957031 6.242188 -3.84375 7.859375 -3.84375 C 8.804688 -3.84375 9.53125 -3.878906 10.03125 -3.953125 C 10.53125 -4.035156 10.882812 -4.160156 11.09375 -4.328125 C 11.289062 -4.484375 11.410156 -4.671875 11.453125 -4.890625 C 11.503906 -5.117188 11.53125 -5.429688 11.53125 -5.828125 C 11.53125 -6.316406 11.488281 -6.664062 11.40625 -6.875 C 11.332031 -7.082031 11.179688 -7.226562 10.953125 -7.3125 C 10.722656 -7.40625 10.316406 -7.488281 9.734375 -7.5625 L 6.0625 -8.03125 C 4.757812 -8.1875 3.765625 -8.519531 3.078125 -9.03125 C 2.390625 -9.539062 1.925781 -10.195312 1.6875 -11 C 1.445312 -11.8125 1.328125 -12.828125 1.328125 -14.046875 C 1.328125 -15.753906 1.644531 -17.050781 2.28125 -17.9375 C 2.914062 -18.820312 3.765625 -19.40625 4.828125 -19.6875 C 5.898438 -19.96875 7.265625 -20.109375 8.921875 -20.109375 C 10.140625 -20.109375 11.253906 -20.054688 12.265625 -19.953125 C 13.273438 -19.859375 14.378906 -19.707031 15.578125 -19.5 L 15.578125 -15.65625 C 13.285156 -15.90625 11.40625 -16.03125 9.9375 -16.03125 C 8.394531 -16.03125 7.394531 -15.914062 6.9375 -15.6875 C 6.6875 -15.570312 6.523438 -15.40625 6.453125 -15.1875 C 6.390625 -14.976562 6.359375 -14.679688 6.359375 -14.296875 C 6.359375 -13.816406 6.390625 -13.472656 6.453125 -13.265625 C 6.523438 -13.066406 6.671875 -12.925781 6.890625 -12.84375 C 7.109375 -12.757812 7.5 -12.675781 8.0625 -12.59375 L 12.28125 -12.078125 C 13.125 -11.984375 13.820312 -11.8125 14.375 -11.5625 C 14.925781 -11.3125 15.382812 -10.882812 15.75 -10.28125 C 16.300781 -9.457031 16.578125 -8.140625 16.578125 -6.328125 C 16.578125 -4.441406 16.28125 -3.019531 15.6875 -2.0625 C 15.09375 -1.113281 14.289062 -0.492188 13.28125 -0.203125 C 12.28125 0.0859375 10.984375 0.234375 9.390625 0.234375 Z M 9.390625 0.234375 "/></g></g></g><g fill="#05927d" fill-opacity="1"><g transform="translate(119.396267, 165.218978)"><g><path d="M 19.03125 0 L 19.03125 -12.65625 L 18.84375 -12.65625 L 14.59375 0 L 11.1875 0 L 6.9375 -12.65625 L 6.734375 -12.65625 L 6.734375 0 L 2.046875 0 L 2.046875 -19.875 L 8.953125 -19.875 L 12.890625 -8.40625 L 13.09375 -8.40625 L 16.984375 -19.875 L 23.859375 -19.875 L 23.859375 0 Z M 19.03125 0 "/></g></g></g><g fill="#05927d" fill-opacity="1"><g transform="translate(148.436786, 165.218978)"><g><path d="M 14.640625 0 L 13.46875 -3.75 L 6.390625 -3.75 L 5.265625 0 L 0.234375 0 L 6.59375 -19.875 L 13.40625 -19.875 L 19.765625 0 Z M 9.96875 -15.421875 L 9.828125 -15.421875 L 7.546875 -7.828125 L 12.28125 -7.828125 Z M 9.96875 -15.421875 "/></g></g></g><g fill="#05927d" fill-opacity="1"><g transform="translate(171.553716, 165.218978)"><g><path d="M 13.234375 0 L 10.625 -6.96875 L 7.140625 -6.96875 L 7.140625 0 L 2.109375 0 L 2.109375 -19.875 L 11.640625 -19.875 C 13.472656 -19.875 14.851562 -19.617188 15.78125 -19.109375 C 16.71875 -18.597656 17.332031 -17.894531 17.625 -17 C 17.925781 -16.101562 18.078125 -14.90625 18.078125 -13.40625 C 18.078125 -12.019531 17.898438 -10.816406 17.546875 -9.796875 C 17.191406 -8.773438 16.484375 -8.03125 15.421875 -7.5625 L 18.484375 0 Z M 9.734375 -10.953125 C 10.773438 -10.953125 11.507812 -11.007812 11.9375 -11.125 C 12.375 -11.238281 12.660156 -11.453125 12.796875 -11.765625 C 12.929688 -12.085938 13 -12.625 13 -13.375 C 13 -14.144531 12.941406 -14.6875 12.828125 -15 C 12.710938 -15.320312 12.4375 -15.539062 12 -15.65625 C 11.570312 -15.769531 10.835938 -15.828125 9.796875 -15.828125 L 7.140625 -15.828125 L 7.140625 -10.953125 Z M 9.734375 -10.953125 "/></g></g></g><g fill="#05927d" fill-opacity="1"><g transform="translate(194.294996, 165.218978)"><g><path d="M 5.953125 0 L 5.953125 -15.59375 L 0.46875 -15.59375 L 0.46875 -19.875 L 16.5 -19.875 L 16.5 -15.59375 L 10.984375 -15.59375 L 10.984375 0 Z M 5.953125 0 "/></g></g></g><g fill="#05927d" fill-opacity="1"><g transform="translate(48.03867, 205.147542)"><g><path d="M 13.4375 0 L 13.4375 -7.796875 L 7.078125 -7.796875 L 7.078125 0 L 2.046875 0 L 2.046875 -19.875 L 7.078125 -19.875 L 7.078125 -12.140625 L 13.4375 -12.140625 L 13.4375 -19.875 L 18.46875 -19.875 L 18.46875 0 Z M 13.4375 0 "/></g></g></g><g fill="#05927d" fill-opacity="1"><g transform="translate(71.675713, 205.147542)"><g><path d="M 2.109375 0 L 2.109375 -19.875 L 16.203125 -19.875 L 16.203125 -15.796875 L 7.140625 -15.796875 L 7.140625 -12.078125 L 14.828125 -12.078125 L 14.828125 -8 L 7.140625 -8 L 7.140625 -4.078125 L 16.203125 -4.078125 L 16.203125 0 Z M 2.109375 0 "/></g></g></g><g fill="#05927d" fill-opacity="1"><g transform="translate(92.56768, 205.147542)"><g><path d="M 14.640625 0 L 13.46875 -3.75 L 6.390625 -3.75 L 5.265625 0 L 0.234375 0 L 6.59375 -19.875 L 13.40625 -19.875 L 19.765625 0 Z M 9.96875 -15.421875 L 9.828125 -15.421875 L 7.546875 -7.828125 L 12.28125 -7.828125 Z M 9.96875 -15.421875 "/></g></g></g><g fill="#05927d" fill-opacity="1"><g transform="translate(115.68461, 205.147542)"><g><path d="M 2.109375 0 L 2.109375 -19.875 L 7.140625 -19.875 L 7.140625 -4.28125 L 15.015625 -4.28125 L 15.015625 0 Z M 2.109375 0 "/></g></g></g><g fill="#05927d" fill-opacity="1"><g transform="translate(134.496089, 205.147542)"><g><path d="M 5.953125 0 L 5.953125 -15.59375 L 0.46875 -15.59375 L 0.46875 -19.875 L 16.5 -19.875 L 16.5 -15.59375 L 10.984375 -15.59375 L 10.984375 0 Z M 5.953125 0 "/></g></g></g><g fill="#05927d" fill-opacity="1"><g transform="translate(154.550077, 205.147542)"><g><path d="M 13.4375 0 L 13.4375 -7.796875 L 7.078125 -7.796875 L 7.078125 0 L 2.046875 0 L 2.046875 -19.875 L 7.078125 -19.875 L 7.078125 -12.140625 L 13.4375 -12.140625 L 13.4375 -19.875 L 18.46875 -19.875 L 18.46875 0 Z M 13.4375 0 "/></g></g></g><g fill="#05927d" fill-opacity="1"><g transform="translate(178.187115, 205.147542)"><g><path d="M 15.34375 -0.265625 C 14.6875 -0.128906 13.863281 -0.015625 12.875 0.078125 C 11.882812 0.179688 10.953125 0.234375 10.078125 0.234375 C 7.578125 0.234375 5.726562 -0.0703125 4.53125 -0.6875 C 3.34375 -1.3125 2.554688 -2.316406 2.171875 -3.703125 C 1.785156 -5.085938 1.59375 -7.164062 1.59375 -9.9375 C 1.59375 -12.675781 1.789062 -14.738281 2.1875 -16.125 C 2.582031 -17.507812 3.375 -18.519531 4.5625 -19.15625 C 5.757812 -19.789062 7.597656 -20.109375 10.078125 -20.109375 C 10.953125 -20.109375 11.867188 -20.054688 12.828125 -19.953125 C 13.785156 -19.847656 14.582031 -19.71875 15.21875 -19.5625 L 15.21875 -15.75 C 13.257812 -15.9375 11.960938 -16.03125 11.328125 -16.03125 C 9.742188 -16.03125 8.65625 -15.910156 8.0625 -15.671875 C 7.46875 -15.429688 7.085938 -14.929688 6.921875 -14.171875 C 6.753906 -13.410156 6.671875 -12 6.671875 -9.9375 C 6.671875 -7.875 6.753906 -6.460938 6.921875 -5.703125 C 7.085938 -4.941406 7.46875 -4.441406 8.0625 -4.203125 C 8.65625 -3.960938 9.742188 -3.84375 11.328125 -3.84375 C 12.753906 -3.84375 14.09375 -3.9375 15.34375 -4.125 Z M 15.34375 -0.265625 "/></g></g></g><g fill="#05927d" fill-opacity="1"><g transform="translate(197.894368, 205.147542)"><g><path d="M 14.640625 0 L 13.46875 -3.75 L 6.390625 -3.75 L 5.265625 0 L 0.234375 0 L 6.59375 -19.875 L 13.40625 -19.875 L 19.765625 0 Z M 9.96875 -15.421875 L 9.828125 -15.421875 L 7.546875 -7.828125 L 12.28125 -7.828125 Z M 9.96875 -15.421875 "/></g></g></g><g fill="#05927d" fill-opacity="1"><g transform="translate(221.01129, 205.147542)"><g><path d="M 13.234375 0 L 10.625 -6.96875 L 7.140625 -6.96875 L 7.140625 0 L 2.109375 0 L 2.109375 -19.875 L 11.640625 -19.875 C 13.472656 -19.875 14.851562 -19.617188 15.78125 -19.109375 C 16.71875 -18.597656 17.332031 -17.894531 17.625 -17 C 17.925781 -16.101562 18.078125 -14.90625 18.078125 -13.40625 C 18.078125 -12.019531 17.898438 -10.816406 17.546875 -9.796875 C 17.191406 -8.773438 16.484375 -8.03125 15.421875 -7.5625 L 18.484375 0 Z M 9.734375 -10.953125 C 10.773438 -10.953125 11.507812 -11.007812 11.9375 -11.125 C 12.375 -11.238281 12.660156 -11.453125 12.796875 -11.765625 C 12.929688 -12.085938 13 -12.625 13 -13.375 C 13 -14.144531 12.941406 -14.6875 12.828125 -15 C 12.710938 -15.320312 12.4375 -15.539062 12 -15.65625 C 11.570312 -15.769531 10.835938 -15.828125 9.796875 -15.828125 L 7.140625 -15.828125 L 7.140625 -10.953125 Z M 9.734375 -10.953125 "/></g></g></g><g fill="#05927d" fill-opacity="1"><g transform="translate(243.75257, 205.147542)"><g><path d="M 2.109375 0 L 2.109375 -19.875 L 16.203125 -19.875 L 16.203125 -15.796875 L 7.140625 -15.796875 L 7.140625 -12.078125 L 14.828125 -12.078125 L 14.828125 -8 L 7.140625 -8 L 7.140625 -4.078125 L 16.203125 -4.078125 L 16.203125 0 Z M 2.109375 0 "/></g></g></g></svg>