<svg xmlns="http://www.w3.org/2000/svg" xmlns:xlink="http://www.w3.org/1999/xlink" width="134" zoomAndPan="magnify" viewBox="0 0 100.5 60" height="80" preserveAspectRatio="xMidYMid meet" version="1.0"><defs><g/><clipPath id="5b4446ea40"><path d="M 76.898438 19.992188 L 93.914062 19.992188 L 93.914062 37.011719 L 76.898438 37.011719 Z M 76.898438 19.992188 " clip-rule="nonzero"/></clipPath><clipPath id="9ab323b7c0"><path d="M 85 27 L 92.171875 27 L 92.171875 34.902344 L 85 34.902344 Z M 85 27 " clip-rule="nonzero"/></clipPath><clipPath id="c2ea56f2e7"><path d="M 78.855469 27 L 86 27 L 86 34.902344 L 78.855469 34.902344 Z M 78.855469 27 " clip-rule="nonzero"/></clipPath><clipPath id="7265db0d7d"><path d="M 80 22.324219 L 91 22.324219 L 91 31 L 80 31 Z M 80 22.324219 " clip-rule="nonzero"/></clipPath></defs><g clip-path="url(#5b4446ea40)"><path fill="#05927d" d="M 85.464844 37.128906 C 80.730469 37.128906 76.898438 33.265625 76.898438 28.5625 C 76.898438 23.855469 80.730469 19.992188 85.464844 19.992188 C 90.195312 19.992188 94.03125 23.828125 94.03125 28.5625 C 94.03125 33.292969 90.171875 37.128906 85.464844 37.128906 Z M 85.464844 20.523438 C 81.023438 20.523438 77.425781 24.117188 77.425781 28.5625 C 77.425781 33.003906 81.023438 36.597656 85.464844 36.597656 C 89.90625 36.597656 93.503906 33.003906 93.503906 28.5625 C 93.503906 24.117188 89.878906 20.523438 85.464844 20.523438 Z M 85.464844 20.523438 " fill-opacity="1" fill-rule="nonzero"/></g><g clip-path="url(#9ab323b7c0)"><path fill="#05927d" d="M 91.863281 27.714844 C 91.730469 27.578125 91.546875 27.519531 91.359375 27.550781 C 91.171875 27.582031 91.019531 27.695312 90.933594 27.863281 L 90.082031 29.566406 C 90.03125 29.671875 89.960938 29.761719 89.867188 29.859375 C 89.855469 29.875 89.839844 29.894531 89.824219 29.914062 C 89.425781 29.59375 88.859375 29.539062 88.378906 29.808594 C 88.046875 30.089844 87.578125 30.347656 86.972656 30.585938 C 86.59375 30.792969 86.339844 31.175781 86.285156 31.601562 L 86.078125 33.277344 L 85.757812 33.277344 L 85.757812 34.78125 L 89.375 34.78125 L 89.375 33.277344 L 89.257812 33.277344 L 90.976562 31.3125 C 91.105469 31.164062 91.199219 30.996094 91.253906 30.808594 L 92.011719 28.292969 C 92.070312 28.085938 92.011719 27.863281 91.863281 27.714844 Z M 89.074219 34.480469 L 86.058594 34.480469 L 86.058594 33.574219 L 89.074219 33.574219 Z M 91.71875 28.203125 L 90.964844 30.71875 C 90.921875 30.867188 90.847656 30.996094 90.75 31.109375 L 88.859375 33.273438 L 86.386719 33.273438 L 86.589844 31.636719 C 86.628906 31.304688 86.828125 31.007812 87.105469 30.851562 C 87.722656 30.613281 88.21875 30.335938 88.554688 30.046875 C 88.90625 29.855469 89.339844 29.898438 89.644531 30.144531 C 89.179688 30.726562 88.71875 31.164062 88.238281 31.488281 L 88.113281 31.570312 L 88.285156 31.820312 L 88.410156 31.738281 C 88.996094 31.347656 89.554688 30.789062 90.101562 30.046875 C 90.203125 29.945312 90.289062 29.828125 90.351562 29.695312 L 91.203125 27.992188 C 91.246094 27.910156 91.320312 27.855469 91.410156 27.839844 C 91.5 27.828125 91.589844 27.855469 91.652344 27.917969 C 91.722656 27.996094 91.746094 28.105469 91.71875 28.203125 Z M 91.71875 28.203125 " fill-opacity="1" fill-rule="nonzero"/></g><g clip-path="url(#c2ea56f2e7)"><path fill="#05927d" d="M 84.632812 31.601562 C 84.578125 31.175781 84.324219 30.792969 83.925781 30.574219 C 83.335938 30.34375 82.871094 30.085938 82.511719 29.789062 C 82.058594 29.535156 81.492188 29.59375 81.09375 29.914062 C 81.074219 29.890625 81.054688 29.867188 81.035156 29.84375 C 80.957031 29.761719 80.890625 29.671875 80.839844 29.566406 L 79.988281 27.863281 C 79.902344 27.695312 79.746094 27.578125 79.5625 27.550781 C 79.375 27.519531 79.191406 27.578125 79.0625 27.714844 C 78.910156 27.863281 78.855469 28.085938 78.914062 28.292969 L 79.667969 30.808594 C 79.722656 30.992188 79.816406 31.164062 79.945312 31.308594 L 81.664062 33.277344 L 81.539062 33.277344 L 81.539062 34.78125 L 85.15625 34.78125 L 85.15625 33.277344 L 84.839844 33.277344 Z M 80.171875 31.113281 C 80.070312 30.996094 80 30.867188 79.957031 30.722656 L 79.199219 28.203125 C 79.171875 28.105469 79.195312 27.996094 79.265625 27.925781 C 79.332031 27.859375 79.417969 27.832031 79.511719 27.847656 C 79.601562 27.863281 79.675781 27.917969 79.714844 27.996094 L 80.566406 29.703125 C 80.632812 29.832031 80.71875 29.953125 80.808594 30.039062 C 81.371094 30.792969 81.929688 31.351562 82.515625 31.742188 L 82.640625 31.828125 L 82.808594 31.578125 L 82.683594 31.492188 C 82.207031 31.175781 81.75 30.738281 81.28125 30.152344 C 81.585938 29.90625 82.015625 29.859375 82.347656 30.035156 C 82.707031 30.339844 83.203125 30.617188 83.804688 30.847656 C 84.097656 31.007812 84.296875 31.304688 84.339844 31.640625 L 84.542969 33.277344 L 82.070312 33.277344 Z M 84.855469 34.480469 L 81.839844 34.480469 L 81.839844 33.574219 L 84.855469 33.574219 Z M 84.855469 34.480469 " fill-opacity="1" fill-rule="nonzero"/></g><g clip-path="url(#7265db0d7d)"><path fill="#05927d" d="M 89.265625 27.214844 C 90.320312 26.164062 90.320312 24.445312 89.265625 23.394531 C 88.21875 22.34375 86.511719 22.34375 85.460938 23.382812 C 84.402344 22.339844 82.699219 22.34375 81.652344 23.394531 C 80.597656 24.445312 80.597656 26.164062 81.652344 27.214844 L 84.972656 30.539062 C 85.105469 30.671875 85.28125 30.738281 85.460938 30.738281 C 85.636719 30.738281 85.8125 30.671875 85.945312 30.539062 Z M 85.183594 30.324219 L 81.859375 27.003906 C 81.40625 26.550781 81.160156 25.945312 81.160156 25.304688 C 81.160156 24.660156 81.40625 24.058594 81.859375 23.605469 C 82.328125 23.136719 82.945312 22.902344 83.558594 22.902344 C 84.171875 22.902344 84.789062 23.136719 85.257812 23.605469 C 85.367188 23.71875 85.550781 23.71875 85.660156 23.605469 C 86.59375 22.671875 88.117188 22.671875 89.054688 23.605469 C 89.507812 24.058594 89.757812 24.660156 89.757812 25.304688 C 89.757812 25.945312 89.507812 26.550781 89.054688 27.003906 L 85.730469 30.324219 C 85.582031 30.46875 85.332031 30.46875 85.183594 30.324219 Z M 85.183594 30.324219 " fill-opacity="1" fill-rule="nonzero"/></g><path fill="#05927d" d="M 86.0625 24.835938 L 84.855469 24.835938 L 84.855469 25.742188 L 83.953125 25.742188 L 83.953125 26.945312 L 84.855469 26.945312 L 84.855469 27.851562 L 86.0625 27.851562 L 86.0625 26.945312 L 86.964844 26.945312 L 86.964844 25.742188 L 86.0625 25.742188 Z M 86.664062 26.039062 L 86.664062 26.644531 L 85.757812 26.644531 L 85.757812 27.546875 L 85.15625 27.546875 L 85.15625 26.644531 L 84.25 26.644531 L 84.25 26.039062 L 85.15625 26.039062 L 85.15625 25.136719 L 85.757812 25.136719 L 85.757812 26.039062 Z M 86.664062 26.039062 " fill-opacity="1" fill-rule="nonzero"/><g fill="#05927d" fill-opacity="1"><g transform="translate(26.967213, 25.78989)"><g><path d="M 2.453125 0.0625 C 1.710938 0.0625 1.0625 0.0195312 0.5 -0.0625 L 0.5 -1.09375 C 1.113281 -1.03125 1.628906 -1 2.046875 -1 C 2.296875 -1 2.484375 -1.007812 2.609375 -1.03125 C 2.742188 -1.050781 2.835938 -1.082031 2.890625 -1.125 C 2.941406 -1.164062 2.972656 -1.210938 2.984375 -1.265625 C 3.003906 -1.328125 3.015625 -1.414062 3.015625 -1.53125 C 3.015625 -1.65625 3.003906 -1.742188 2.984375 -1.796875 C 2.960938 -1.847656 2.921875 -1.882812 2.859375 -1.90625 C 2.796875 -1.9375 2.691406 -1.960938 2.546875 -1.984375 L 1.578125 -2.09375 C 1.242188 -2.132812 0.984375 -2.222656 0.796875 -2.359375 C 0.617188 -2.492188 0.5 -2.664062 0.4375 -2.875 C 0.375 -3.082031 0.34375 -3.347656 0.34375 -3.671875 C 0.34375 -4.117188 0.425781 -4.457031 0.59375 -4.6875 C 0.757812 -4.914062 0.984375 -5.066406 1.265625 -5.140625 C 1.546875 -5.210938 1.898438 -5.25 2.328125 -5.25 C 2.648438 -5.25 2.941406 -5.234375 3.203125 -5.203125 C 3.460938 -5.179688 3.75 -5.144531 4.0625 -5.09375 L 4.0625 -4.09375 C 3.46875 -4.15625 2.976562 -4.1875 2.59375 -4.1875 C 2.195312 -4.1875 1.9375 -4.15625 1.8125 -4.09375 C 1.75 -4.0625 1.707031 -4.019531 1.6875 -3.96875 C 1.664062 -3.914062 1.65625 -3.835938 1.65625 -3.734375 C 1.65625 -3.609375 1.664062 -3.519531 1.6875 -3.46875 C 1.707031 -3.414062 1.742188 -3.378906 1.796875 -3.359375 C 1.859375 -3.335938 1.960938 -3.316406 2.109375 -3.296875 L 3.203125 -3.15625 C 3.429688 -3.125 3.613281 -3.078125 3.75 -3.015625 C 3.894531 -2.953125 4.015625 -2.84375 4.109375 -2.6875 C 4.253906 -2.46875 4.328125 -2.125 4.328125 -1.65625 C 4.328125 -1.15625 4.25 -0.78125 4.09375 -0.53125 C 3.9375 -0.289062 3.726562 -0.128906 3.46875 -0.046875 C 3.207031 0.0234375 2.867188 0.0625 2.453125 0.0625 Z M 2.453125 0.0625 "/></g></g></g><g fill="#05927d" fill-opacity="1"><g transform="translate(32.456528, 25.78989)"><g><path d="M 4.96875 0 L 4.96875 -3.3125 L 4.921875 -3.3125 L 3.8125 0 L 2.921875 0 L 1.8125 -3.3125 L 1.765625 -3.3125 L 1.765625 0 L 0.53125 0 L 0.53125 -5.1875 L 2.34375 -5.1875 L 3.359375 -2.203125 L 3.421875 -2.203125 L 4.4375 -5.1875 L 6.234375 -5.1875 L 6.234375 0 Z M 4.96875 0 "/></g></g></g><g fill="#05927d" fill-opacity="1"><g transform="translate(40.034453, 25.78989)"><g><path d="M 3.828125 0 L 3.515625 -0.984375 L 1.671875 -0.984375 L 1.375 0 L 0.0625 0 L 1.71875 -5.1875 L 3.5 -5.1875 L 5.15625 0 Z M 2.609375 -4.03125 L 2.5625 -4.03125 L 1.96875 -2.046875 L 3.203125 -2.046875 Z M 2.609375 -4.03125 "/></g></g></g><g fill="#05927d" fill-opacity="1"><g transform="translate(46.066658, 25.78989)"><g><path d="M 3.453125 0 L 2.78125 -1.8125 L 1.859375 -1.8125 L 1.859375 0 L 0.546875 0 L 0.546875 -5.1875 L 3.046875 -5.1875 C 3.523438 -5.1875 3.882812 -5.117188 4.125 -4.984375 C 4.363281 -4.859375 4.519531 -4.675781 4.59375 -4.4375 C 4.675781 -4.207031 4.71875 -3.894531 4.71875 -3.5 C 4.71875 -3.132812 4.671875 -2.816406 4.578125 -2.546875 C 4.484375 -2.285156 4.300781 -2.097656 4.03125 -1.984375 L 4.828125 0 Z M 2.546875 -2.859375 C 2.816406 -2.859375 3.007812 -2.875 3.125 -2.90625 C 3.238281 -2.9375 3.3125 -2.992188 3.34375 -3.078125 C 3.375 -3.160156 3.390625 -3.300781 3.390625 -3.5 C 3.390625 -3.695312 3.375 -3.835938 3.34375 -3.921875 C 3.320312 -4.003906 3.253906 -4.0625 3.140625 -4.09375 C 3.023438 -4.125 2.832031 -4.140625 2.5625 -4.140625 L 1.859375 -4.140625 L 1.859375 -2.859375 Z M 2.546875 -2.859375 "/></g></g></g><g fill="#05927d" fill-opacity="1"><g transform="translate(52.000839, 25.78989)"><g><path d="M 1.546875 0 L 1.546875 -4.078125 L 0.125 -4.078125 L 0.125 -5.1875 L 4.3125 -5.1875 L 4.3125 -4.078125 L 2.875 -4.078125 L 2.875 0 Z M 1.546875 0 "/></g></g></g><g fill="#05927d" fill-opacity="1"><g transform="translate(13.836251, 36.208975)"><g><path d="M 3.515625 0 L 3.515625 -2.03125 L 1.84375 -2.03125 L 1.84375 0 L 0.53125 0 L 0.53125 -5.1875 L 1.84375 -5.1875 L 1.84375 -3.171875 L 3.515625 -3.171875 L 3.515625 -5.1875 L 4.828125 -5.1875 L 4.828125 0 Z M 3.515625 0 "/></g></g></g><g fill="#05927d" fill-opacity="1"><g transform="translate(20.004176, 36.208975)"><g><path d="M 0.546875 0 L 0.546875 -5.1875 L 4.234375 -5.1875 L 4.234375 -4.125 L 1.859375 -4.125 L 1.859375 -3.15625 L 3.875 -3.15625 L 3.875 -2.09375 L 1.859375 -2.09375 L 1.859375 -1.0625 L 4.234375 -1.0625 L 4.234375 0 Z M 0.546875 0 "/></g></g></g><g fill="#05927d" fill-opacity="1"><g transform="translate(25.455792, 36.208975)"><g><path d="M 3.828125 0 L 3.515625 -0.984375 L 1.671875 -0.984375 L 1.375 0 L 0.0625 0 L 1.71875 -5.1875 L 3.5 -5.1875 L 5.15625 0 Z M 2.609375 -4.03125 L 2.5625 -4.03125 L 1.96875 -2.046875 L 3.203125 -2.046875 Z M 2.609375 -4.03125 "/></g></g></g><g fill="#05927d" fill-opacity="1"><g transform="translate(31.487996, 36.208975)"><g><path d="M 0.546875 0 L 0.546875 -5.1875 L 1.859375 -5.1875 L 1.859375 -1.109375 L 3.921875 -1.109375 L 3.921875 0 Z M 0.546875 0 "/></g></g></g><g fill="#05927d" fill-opacity="1"><g transform="translate(36.396723, 36.208975)"><g><path d="M 1.546875 0 L 1.546875 -4.078125 L 0.125 -4.078125 L 0.125 -5.1875 L 4.3125 -5.1875 L 4.3125 -4.078125 L 2.875 -4.078125 L 2.875 0 Z M 1.546875 0 "/></g></g></g><g fill="#05927d" fill-opacity="1"><g transform="translate(41.629674, 36.208975)"><g><path d="M 3.515625 0 L 3.515625 -2.03125 L 1.84375 -2.03125 L 1.84375 0 L 0.53125 0 L 0.53125 -5.1875 L 1.84375 -5.1875 L 1.84375 -3.171875 L 3.515625 -3.171875 L 3.515625 -5.1875 L 4.828125 -5.1875 L 4.828125 0 Z M 3.515625 0 "/></g></g></g><g fill="#05927d" fill-opacity="1"><g transform="translate(47.797598, 36.208975)"><g><path d="M 4 -0.0625 C 3.832031 -0.03125 3.617188 -0.00390625 3.359375 0.015625 C 3.097656 0.046875 2.859375 0.0625 2.640625 0.0625 C 1.984375 0.0625 1.5 -0.015625 1.1875 -0.171875 C 0.875 -0.335938 0.664062 -0.601562 0.5625 -0.96875 C 0.46875 -1.332031 0.421875 -1.875 0.421875 -2.59375 C 0.421875 -3.3125 0.46875 -3.847656 0.5625 -4.203125 C 0.664062 -4.566406 0.875 -4.832031 1.1875 -5 C 1.5 -5.164062 1.984375 -5.25 2.640625 -5.25 C 2.859375 -5.25 3.09375 -5.234375 3.34375 -5.203125 C 3.601562 -5.179688 3.816406 -5.148438 3.984375 -5.109375 L 3.984375 -4.109375 C 3.460938 -4.160156 3.117188 -4.1875 2.953125 -4.1875 C 2.546875 -4.1875 2.265625 -4.15625 2.109375 -4.09375 C 1.953125 -4.03125 1.851562 -3.898438 1.8125 -3.703125 C 1.769531 -3.503906 1.75 -3.132812 1.75 -2.59375 C 1.75 -2.050781 1.769531 -1.679688 1.8125 -1.484375 C 1.851562 -1.285156 1.953125 -1.15625 2.109375 -1.09375 C 2.265625 -1.03125 2.546875 -1 2.953125 -1 C 3.328125 -1 3.675781 -1.023438 4 -1.078125 Z M 4 -0.0625 "/></g></g></g><g fill="#05927d" fill-opacity="1"><g transform="translate(52.940071, 36.208975)"><g><path d="M 3.828125 0 L 3.515625 -0.984375 L 1.671875 -0.984375 L 1.375 0 L 0.0625 0 L 1.71875 -5.1875 L 3.5 -5.1875 L 5.15625 0 Z M 2.609375 -4.03125 L 2.5625 -4.03125 L 1.96875 -2.046875 L 3.203125 -2.046875 Z M 2.609375 -4.03125 "/></g></g></g><g fill="#05927d" fill-opacity="1"><g transform="translate(58.972273, 36.208975)"><g><path d="M 3.453125 0 L 2.78125 -1.8125 L 1.859375 -1.8125 L 1.859375 0 L 0.546875 0 L 0.546875 -5.1875 L 3.046875 -5.1875 C 3.523438 -5.1875 3.882812 -5.117188 4.125 -4.984375 C 4.363281 -4.859375 4.519531 -4.675781 4.59375 -4.4375 C 4.675781 -4.207031 4.71875 -3.894531 4.71875 -3.5 C 4.71875 -3.132812 4.671875 -2.816406 4.578125 -2.546875 C 4.484375 -2.285156 4.300781 -2.097656 4.03125 -1.984375 L 4.828125 0 Z M 2.546875 -2.859375 C 2.816406 -2.859375 3.007812 -2.875 3.125 -2.90625 C 3.238281 -2.9375 3.3125 -2.992188 3.34375 -3.078125 C 3.375 -3.160156 3.390625 -3.300781 3.390625 -3.5 C 3.390625 -3.695312 3.375 -3.835938 3.34375 -3.921875 C 3.320312 -4.003906 3.253906 -4.0625 3.140625 -4.09375 C 3.023438 -4.125 2.832031 -4.140625 2.5625 -4.140625 L 1.859375 -4.140625 L 1.859375 -2.859375 Z M 2.546875 -2.859375 "/></g></g></g><g fill="#05927d" fill-opacity="1"><g transform="translate(64.906454, 36.208975)"><g><path d="M 0.546875 0 L 0.546875 -5.1875 L 4.234375 -5.1875 L 4.234375 -4.125 L 1.859375 -4.125 L 1.859375 -3.15625 L 3.875 -3.15625 L 3.875 -2.09375 L 1.859375 -2.09375 L 1.859375 -1.0625 L 4.234375 -1.0625 L 4.234375 0 Z M 0.546875 0 "/></g></g></g></svg>