<svg xmlns="http://www.w3.org/2000/svg" xmlns:xlink="http://www.w3.org/1999/xlink" width="300" zoomAndPan="magnify" viewBox="0 0 224.87999 119.999999" height="160" preserveAspectRatio="xMidYMid meet" version="1.0"><defs><g/><clipPath id="902d4120e9"><path d="M 178.835938 35.75 L 220.960938 35.75 L 220.960938 77.875 L 178.835938 77.875 Z M 178.835938 35.75 " clip-rule="nonzero"/></clipPath><clipPath id="abc43cecff"><path d="M 200 54 L 216.652344 54 L 216.652344 72.652344 L 200 72.652344 Z M 200 54 " clip-rule="nonzero"/></clipPath><clipPath id="b90000813f"><path d="M 183.683594 54 L 200 54 L 200 72.652344 L 183.683594 72.652344 Z M 183.683594 54 " clip-rule="nonzero"/></clipPath></defs><g clip-path="url(#902d4120e9)"><path fill="#05927d" d="M 200.042969 78.160156 C 188.328125 78.160156 178.835938 68.605469 178.835938 56.957031 C 178.835938 45.304688 188.328125 35.75 200.042969 35.75 C 211.757812 35.75 221.246094 45.242188 221.246094 56.957031 C 221.246094 68.671875 211.691406 78.160156 200.042969 78.160156 Z M 200.042969 37.058594 C 189.046875 37.058594 180.144531 45.960938 180.144531 56.957031 C 180.144531 67.953125 189.046875 76.851562 200.042969 76.851562 C 211.039062 76.851562 219.9375 67.953125 219.9375 56.957031 C 219.9375 45.960938 210.972656 37.058594 200.042969 37.058594 Z M 200.042969 37.058594 " fill-opacity="1" fill-rule="nonzero"/></g><g clip-path="url(#abc43cecff)"><path fill="#05927d" d="M 215.882812 54.859375 C 215.550781 54.527344 215.09375 54.378906 214.640625 54.457031 C 214.175781 54.535156 213.789062 54.8125 213.582031 55.230469 L 211.472656 59.449219 C 211.347656 59.703125 211.179688 59.925781 210.945312 60.167969 C 210.90625 60.210938 210.878906 60.257812 210.839844 60.304688 C 209.847656 59.515625 208.445312 59.378906 207.261719 60.042969 C 206.433594 60.738281 205.277344 61.378906 203.777344 61.964844 C 202.84375 62.484375 202.210938 63.425781 202.078125 64.484375 L 201.558594 68.625 L 200.773438 68.625 L 200.773438 72.355469 L 209.726562 72.355469 L 209.726562 68.625 L 209.433594 68.625 L 213.6875 63.765625 C 214.003906 63.402344 214.238281 62.984375 214.375 62.523438 L 216.246094 56.289062 C 216.394531 55.777344 216.253906 55.230469 215.882812 54.859375 Z M 208.976562 71.609375 L 201.515625 71.609375 L 201.515625 69.367188 L 208.976562 69.367188 Z M 215.527344 56.070312 L 213.65625 62.296875 C 213.550781 62.660156 213.371094 62.984375 213.125 63.265625 L 208.445312 68.617188 L 202.324219 68.617188 L 202.828125 64.570312 C 202.925781 63.742188 203.421875 63.015625 204.101562 62.628906 C 205.632812 62.035156 206.859375 61.347656 207.695312 60.636719 C 208.558594 60.160156 209.632812 60.265625 210.390625 60.878906 C 209.238281 62.3125 208.097656 63.402344 206.914062 64.199219 L 206.605469 64.40625 L 207.023438 65.027344 L 207.332031 64.816406 C 208.785156 63.851562 210.167969 62.46875 211.519531 60.636719 C 211.773438 60.382812 211.980469 60.089844 212.144531 59.765625 L 214.253906 55.546875 C 214.351562 55.34375 214.539062 55.207031 214.761719 55.175781 C 214.988281 55.144531 215.203125 55.214844 215.359375 55.367188 C 215.535156 55.5625 215.597656 55.824219 215.527344 56.070312 Z M 215.527344 56.070312 " fill-opacity="1" fill-rule="nonzero"/></g><g clip-path="url(#b90000813f)"><path fill="#05927d" d="M 197.984375 64.484375 C 197.851562 63.425781 197.21875 62.484375 196.238281 61.941406 C 194.777344 61.371094 193.625 60.730469 192.738281 59.996094 C 191.609375 59.371094 190.210938 59.507812 189.222656 60.304688 C 189.175781 60.242188 189.128906 60.1875 189.082031 60.128906 C 188.882812 59.925781 188.71875 59.703125 188.597656 59.449219 L 186.488281 55.230469 C 186.277344 54.8125 185.894531 54.527344 185.4375 54.457031 C 184.972656 54.378906 184.519531 54.527344 184.191406 54.859375 C 183.824219 55.230469 183.683594 55.777344 183.832031 56.289062 L 185.691406 62.515625 C 185.832031 62.976562 186.0625 63.394531 186.378906 63.757812 L 190.636719 68.625 L 190.328125 68.625 L 190.328125 72.355469 L 199.28125 72.355469 L 199.28125 68.625 L 198.5 68.625 Z M 186.945312 63.273438 C 186.695312 62.984375 186.519531 62.660156 186.410156 62.304688 L 184.53125 56.070312 C 184.464844 55.824219 184.527344 55.5625 184.703125 55.382812 C 184.867188 55.222656 185.082031 55.152344 185.304688 55.191406 C 185.53125 55.230469 185.714844 55.359375 185.816406 55.5625 L 187.925781 59.78125 C 188.085938 60.105469 188.296875 60.398438 188.519531 60.613281 C 189.910156 62.484375 191.292969 63.867188 192.746094 64.832031 L 193.054688 65.042969 L 193.472656 64.421875 L 193.164062 64.214844 C 191.980469 63.425781 190.84375 62.34375 189.6875 60.890625 C 190.441406 60.28125 191.507812 60.167969 192.328125 60.605469 C 193.214844 61.355469 194.445312 62.042969 195.9375 62.613281 C 196.664062 63.015625 197.15625 63.75 197.257812 64.578125 L 197.757812 68.625 L 191.640625 68.625 Z M 198.53125 71.609375 L 191.078125 71.609375 L 191.078125 69.367188 L 198.539062 69.367188 L 198.539062 71.609375 Z M 198.53125 71.609375 " fill-opacity="1" fill-rule="nonzero"/></g><path fill="#05927d" d="M 209.457031 53.621094 C 212.058594 51.019531 212.058594 46.769531 209.457031 44.167969 C 206.859375 41.570312 202.632812 41.5625 200.03125 44.136719 C 197.417969 41.554688 193.199219 41.5625 190.605469 44.167969 C 188 46.769531 188 51.019531 190.605469 53.621094 L 198.824219 61.851562 C 199.15625 62.183594 199.589844 62.34375 200.03125 62.34375 C 200.472656 62.34375 200.902344 62.183594 201.234375 61.851562 Z M 199.351562 61.324219 L 191.121094 53.097656 C 190.003906 51.976562 189.382812 50.484375 189.382812 48.894531 C 189.382812 47.304688 190.003906 45.8125 191.121094 44.691406 C 192.28125 43.535156 193.804688 42.953125 195.324219 42.953125 C 196.847656 42.953125 198.371094 43.535156 199.527344 44.691406 C 199.804688 44.96875 200.253906 44.96875 200.523438 44.691406 C 202.84375 42.375 206.613281 42.375 208.929688 44.691406 C 210.050781 45.8125 210.667969 47.304688 210.667969 48.894531 C 210.667969 50.484375 210.050781 51.976562 208.929688 53.097656 L 200.703125 61.324219 C 200.339844 61.679688 199.714844 61.679688 199.351562 61.324219 Z M 199.351562 61.324219 " fill-opacity="1" fill-rule="nonzero"/><path fill="#05927d" d="M 201.519531 47.734375 L 198.539062 47.734375 L 198.539062 49.976562 L 196.300781 49.976562 L 196.300781 52.957031 L 198.539062 52.957031 L 198.539062 55.199219 L 201.519531 55.199219 L 201.519531 52.957031 L 203.761719 52.957031 L 203.761719 49.976562 L 201.519531 49.976562 Z M 203.011719 50.71875 L 203.011719 52.210938 L 200.773438 52.210938 L 200.773438 54.449219 L 199.28125 54.449219 L 199.28125 52.210938 L 197.039062 52.210938 L 197.039062 50.71875 L 199.28125 50.71875 L 199.28125 48.476562 L 200.773438 48.476562 L 200.773438 50.71875 Z M 203.011719 50.71875 " fill-opacity="1" fill-rule="nonzero"/><g fill="#05927d" fill-opacity="1"><g transform="translate(55.247912, 50.09694)"><g><path d="M 6.0625 0.15625 C 4.25 0.15625 2.640625 0.046875 1.234375 -0.171875 L 1.234375 -2.703125 C 2.742188 -2.554688 4.023438 -2.484375 5.078125 -2.484375 C 5.679688 -2.484375 6.144531 -2.503906 6.46875 -2.546875 C 6.789062 -2.597656 7.019531 -2.679688 7.15625 -2.796875 C 7.28125 -2.898438 7.359375 -3.019531 7.390625 -3.15625 C 7.421875 -3.300781 7.4375 -3.503906 7.4375 -3.765625 C 7.4375 -4.078125 7.410156 -4.300781 7.359375 -4.4375 C 7.316406 -4.570312 7.21875 -4.664062 7.0625 -4.71875 C 6.914062 -4.78125 6.65625 -4.835938 6.28125 -4.890625 L 3.921875 -5.1875 C 3.078125 -5.28125 2.429688 -5.492188 1.984375 -5.828125 C 1.546875 -6.160156 1.25 -6.585938 1.09375 -7.109375 C 0.9375 -7.628906 0.859375 -8.28125 0.859375 -9.0625 C 0.859375 -10.175781 1.0625 -11.015625 1.46875 -11.578125 C 1.882812 -12.148438 2.4375 -12.523438 3.125 -12.703125 C 3.8125 -12.890625 4.691406 -12.984375 5.765625 -12.984375 C 6.546875 -12.984375 7.265625 -12.953125 7.921875 -12.890625 C 8.578125 -12.828125 9.289062 -12.726562 10.0625 -12.59375 L 10.0625 -10.109375 C 8.570312 -10.273438 7.359375 -10.359375 6.421875 -10.359375 C 5.421875 -10.359375 4.773438 -10.28125 4.484375 -10.125 C 4.316406 -10.050781 4.210938 -9.945312 4.171875 -9.8125 C 4.128906 -9.675781 4.109375 -9.484375 4.109375 -9.234375 C 4.109375 -8.921875 4.128906 -8.695312 4.171875 -8.5625 C 4.210938 -8.4375 4.304688 -8.34375 4.453125 -8.28125 C 4.597656 -8.226562 4.847656 -8.179688 5.203125 -8.140625 L 7.921875 -7.796875 C 8.472656 -7.734375 8.925781 -7.617188 9.28125 -7.453125 C 9.632812 -7.296875 9.929688 -7.023438 10.171875 -6.640625 C 10.523438 -6.109375 10.703125 -5.253906 10.703125 -4.078125 C 10.703125 -2.859375 10.507812 -1.941406 10.125 -1.328125 C 9.738281 -0.710938 9.222656 -0.3125 8.578125 -0.125 C 7.929688 0.0625 7.09375 0.15625 6.0625 0.15625 Z M 6.0625 0.15625 "/></g></g></g><g fill="#05927d" fill-opacity="1"><g transform="translate(68.835397, 50.09694)"><g><path d="M 12.296875 0 L 12.296875 -8.171875 L 12.15625 -8.171875 L 9.421875 0 L 7.21875 0 L 4.484375 -8.171875 L 4.34375 -8.171875 L 4.34375 0 L 1.328125 0 L 1.328125 -12.828125 L 5.78125 -12.828125 L 8.328125 -5.421875 L 8.453125 -5.421875 L 10.96875 -12.828125 L 15.40625 -12.828125 L 15.40625 0 Z M 12.296875 0 "/></g></g></g><g fill="#05927d" fill-opacity="1"><g transform="translate(87.592734, 50.09694)"><g><path d="M 9.453125 0 L 8.6875 -2.421875 L 4.125 -2.421875 L 3.390625 0 L 0.15625 0 L 4.25 -12.828125 L 8.65625 -12.828125 L 12.765625 0 Z M 6.4375 -9.96875 L 6.34375 -9.96875 L 4.875 -5.0625 L 7.921875 -5.0625 Z M 6.4375 -9.96875 "/></g></g></g><g fill="#05927d" fill-opacity="1"><g transform="translate(102.524011, 50.09694)"><g><path d="M 8.546875 0 L 6.859375 -4.5 L 4.609375 -4.5 L 4.609375 0 L 1.359375 0 L 1.359375 -12.828125 L 7.515625 -12.828125 C 8.703125 -12.828125 9.59375 -12.660156 10.1875 -12.328125 C 10.789062 -12.003906 11.1875 -11.550781 11.375 -10.96875 C 11.570312 -10.394531 11.671875 -9.625 11.671875 -8.65625 C 11.671875 -7.757812 11.554688 -6.976562 11.328125 -6.3125 C 11.097656 -5.65625 10.644531 -5.179688 9.96875 -4.890625 L 11.9375 0 Z M 6.28125 -7.078125 C 6.957031 -7.078125 7.4375 -7.113281 7.71875 -7.1875 C 8 -7.257812 8.179688 -7.394531 8.265625 -7.59375 C 8.347656 -7.800781 8.390625 -8.148438 8.390625 -8.640625 C 8.390625 -9.140625 8.351562 -9.488281 8.28125 -9.6875 C 8.207031 -9.894531 8.03125 -10.035156 7.75 -10.109375 C 7.46875 -10.179688 6.992188 -10.21875 6.328125 -10.21875 L 4.609375 -10.21875 L 4.609375 -7.078125 Z M 6.28125 -7.078125 "/></g></g></g><g fill="#05927d" fill-opacity="1"><g transform="translate(117.212654, 50.09694)"><g><path d="M 3.84375 0 L 3.84375 -10.078125 L 0.296875 -10.078125 L 0.296875 -12.828125 L 10.65625 -12.828125 L 10.65625 -10.078125 L 7.09375 -10.078125 L 7.09375 0 Z M 3.84375 0 "/></g></g></g><g fill="#05927d" fill-opacity="1"><g transform="translate(22.745366, 75.886889)"><g><path d="M 8.671875 0 L 8.671875 -5.03125 L 4.578125 -5.03125 L 4.578125 0 L 1.328125 0 L 1.328125 -12.828125 L 4.578125 -12.828125 L 4.578125 -7.828125 L 8.671875 -7.828125 L 8.671875 -12.828125 L 11.921875 -12.828125 L 11.921875 0 Z M 8.671875 0 "/></g></g></g><g fill="#05927d" fill-opacity="1"><g transform="translate(38.012585, 75.886889)"><g><path d="M 1.359375 0 L 1.359375 -12.828125 L 10.46875 -12.828125 L 10.46875 -10.203125 L 4.609375 -10.203125 L 4.609375 -7.796875 L 9.578125 -7.796875 L 9.578125 -5.171875 L 4.609375 -5.171875 L 4.609375 -2.625 L 10.46875 -2.625 L 10.46875 0 Z M 1.359375 0 "/></g></g></g><g fill="#05927d" fill-opacity="1"><g transform="translate(51.506753, 75.886889)"><g><path d="M 9.453125 0 L 8.6875 -2.421875 L 4.125 -2.421875 L 3.390625 0 L 0.15625 0 L 4.25 -12.828125 L 8.65625 -12.828125 L 12.765625 0 Z M 6.4375 -9.96875 L 6.34375 -9.96875 L 4.875 -5.0625 L 7.921875 -5.0625 Z M 6.4375 -9.96875 "/></g></g></g><g fill="#05927d" fill-opacity="1"><g transform="translate(66.438029, 75.886889)"><g><path d="M 1.359375 0 L 1.359375 -12.828125 L 4.609375 -12.828125 L 4.609375 -2.765625 L 9.703125 -2.765625 L 9.703125 0 Z M 1.359375 0 "/></g></g></g><g fill="#05927d" fill-opacity="1"><g transform="translate(78.588406, 75.886889)"><g><path d="M 3.84375 0 L 3.84375 -10.078125 L 0.296875 -10.078125 L 0.296875 -12.828125 L 10.65625 -12.828125 L 10.65625 -10.078125 L 7.09375 -10.078125 L 7.09375 0 Z M 3.84375 0 "/></g></g></g><g fill="#05927d" fill-opacity="1"><g transform="translate(91.541321, 75.886889)"><g><path d="M 8.671875 0 L 8.671875 -5.03125 L 4.578125 -5.03125 L 4.578125 0 L 1.328125 0 L 1.328125 -12.828125 L 4.578125 -12.828125 L 4.578125 -7.828125 L 8.671875 -7.828125 L 8.671875 -12.828125 L 11.921875 -12.828125 L 11.921875 0 Z M 8.671875 0 "/></g></g></g><g fill="#05927d" fill-opacity="1"><g transform="translate(106.808538, 75.886889)"><g><path d="M 9.90625 -0.171875 C 9.476562 -0.078125 8.941406 0 8.296875 0.0625 C 7.660156 0.125 7.066406 0.15625 6.515625 0.15625 C 4.890625 0.15625 3.691406 -0.0390625 2.921875 -0.4375 C 2.148438 -0.84375 1.640625 -1.492188 1.390625 -2.390625 C 1.148438 -3.285156 1.03125 -4.628906 1.03125 -6.421875 C 1.03125 -8.179688 1.15625 -9.507812 1.40625 -10.40625 C 1.664062 -11.300781 2.179688 -11.953125 2.953125 -12.359375 C 3.722656 -12.773438 4.910156 -12.984375 6.515625 -12.984375 C 7.066406 -12.984375 7.65625 -12.945312 8.28125 -12.875 C 8.90625 -12.8125 9.421875 -12.726562 9.828125 -12.625 L 9.828125 -10.171875 C 8.554688 -10.296875 7.71875 -10.359375 7.3125 -10.359375 C 6.289062 -10.359375 5.585938 -10.28125 5.203125 -10.125 C 4.816406 -9.96875 4.570312 -9.640625 4.46875 -9.140625 C 4.363281 -8.648438 4.3125 -7.742188 4.3125 -6.421875 C 4.3125 -5.085938 4.363281 -4.175781 4.46875 -3.6875 C 4.570312 -3.195312 4.816406 -2.875 5.203125 -2.71875 C 5.585938 -2.5625 6.289062 -2.484375 7.3125 -2.484375 C 8.226562 -2.484375 9.09375 -2.546875 9.90625 -2.671875 Z M 9.90625 -0.171875 "/></g></g></g><g fill="#05927d" fill-opacity="1"><g transform="translate(119.537497, 75.886889)"><g><path d="M 9.453125 0 L 8.6875 -2.421875 L 4.125 -2.421875 L 3.390625 0 L 0.15625 0 L 4.25 -12.828125 L 8.65625 -12.828125 L 12.765625 0 Z M 6.4375 -9.96875 L 6.34375 -9.96875 L 4.875 -5.0625 L 7.921875 -5.0625 Z M 6.4375 -9.96875 "/></g></g></g><g fill="#05927d" fill-opacity="1"><g transform="translate(134.468768, 75.886889)"><g><path d="M 8.546875 0 L 6.859375 -4.5 L 4.609375 -4.5 L 4.609375 0 L 1.359375 0 L 1.359375 -12.828125 L 7.515625 -12.828125 C 8.703125 -12.828125 9.59375 -12.660156 10.1875 -12.328125 C 10.789062 -12.003906 11.1875 -11.550781 11.375 -10.96875 C 11.570312 -10.394531 11.671875 -9.625 11.671875 -8.65625 C 11.671875 -7.757812 11.554688 -6.976562 11.328125 -6.3125 C 11.097656 -5.65625 10.644531 -5.179688 9.96875 -4.890625 L 11.9375 0 Z M 6.28125 -7.078125 C 6.957031 -7.078125 7.4375 -7.113281 7.71875 -7.1875 C 8 -7.257812 8.179688 -7.394531 8.265625 -7.59375 C 8.347656 -7.800781 8.390625 -8.148438 8.390625 -8.640625 C 8.390625 -9.140625 8.351562 -9.488281 8.28125 -9.6875 C 8.207031 -9.894531 8.03125 -10.035156 7.75 -10.109375 C 7.46875 -10.179688 6.992188 -10.21875 6.328125 -10.21875 L 4.609375 -10.21875 L 4.609375 -7.078125 Z M 6.28125 -7.078125 "/></g></g></g><g fill="#05927d" fill-opacity="1"><g transform="translate(149.157412, 75.886889)"><g><path d="M 1.359375 0 L 1.359375 -12.828125 L 10.46875 -12.828125 L 10.46875 -10.203125 L 4.609375 -10.203125 L 4.609375 -7.796875 L 9.578125 -7.796875 L 9.578125 -5.171875 L 4.609375 -5.171875 L 4.609375 -2.625 L 10.46875 -2.625 L 10.46875 0 Z M 1.359375 0 "/></g></g></g></svg>