<svg xmlns="http://www.w3.org/2000/svg" xmlns:xlink="http://www.w3.org/1999/xlink" width="500" zoomAndPan="magnify" viewBox="0 0 375 374.999991" height="500" preserveAspectRatio="xMidYMid meet" version="1.0"><defs><g/><clipPath id="96646e5aa3"><path d="M 261.84375 155.644531 L 308.882812 155.644531 L 308.882812 202.683594 L 261.84375 202.683594 Z M 261.84375 155.644531 " clip-rule="nonzero"/></clipPath><clipPath id="acab6158da"><path d="M 286 176 L 304 176 L 304 196.851562 L 286 196.851562 Z M 286 176 " clip-rule="nonzero"/></clipPath><clipPath id="3946100790"><path d="M 267.253906 176 L 285 176 L 285 196.851562 L 267.253906 196.851562 Z M 267.253906 176 " clip-rule="nonzero"/></clipPath><clipPath id="528112704d"><path d="M 272 162.082031 L 299 162.082031 L 299 186 L 272 186 Z M 272 162.082031 " clip-rule="nonzero"/></clipPath></defs><g clip-path="url(#96646e5aa3)"><path fill="#05927d" d="M 285.523438 203.003906 C 272.441406 203.003906 261.84375 192.332031 261.84375 179.324219 C 261.84375 166.3125 272.441406 155.644531 285.523438 155.644531 C 298.605469 155.644531 309.203125 166.242188 309.203125 179.324219 C 309.203125 192.40625 298.53125 203.003906 285.523438 203.003906 Z M 285.523438 157.105469 C 273.242188 157.105469 263.304688 167.042969 263.304688 179.324219 C 263.304688 191.601562 273.242188 201.539062 285.523438 201.539062 C 297.800781 201.539062 307.742188 191.601562 307.742188 179.324219 C 307.742188 167.042969 297.726562 157.105469 285.523438 157.105469 Z M 285.523438 157.105469 " fill-opacity="1" fill-rule="nonzero"/></g><g clip-path="url(#acab6158da)"><path fill="#05927d" d="M 303.210938 176.980469 C 302.839844 176.609375 302.332031 176.445312 301.824219 176.53125 C 301.304688 176.617188 300.875 176.929688 300.640625 177.394531 L 298.285156 182.105469 C 298.148438 182.390625 297.957031 182.640625 297.699219 182.90625 C 297.65625 182.960938 297.621094 183.011719 297.578125 183.0625 C 296.472656 182.183594 294.902344 182.027344 293.582031 182.769531 C 292.660156 183.546875 291.367188 184.261719 289.691406 184.917969 C 288.648438 185.496094 287.941406 186.546875 287.792969 187.730469 L 287.21875 192.355469 L 286.335938 192.355469 L 286.335938 196.519531 L 296.335938 196.519531 L 296.335938 192.355469 L 296.007812 192.355469 L 300.761719 186.929688 C 301.113281 186.523438 301.375 186.054688 301.527344 185.539062 L 303.617188 178.578125 C 303.78125 178.007812 303.625 177.394531 303.210938 176.980469 Z M 295.5 195.683594 L 287.164062 195.683594 L 287.164062 193.183594 L 295.5 193.183594 Z M 302.8125 178.335938 L 300.726562 185.289062 C 300.605469 185.695312 300.40625 186.054688 300.132812 186.367188 L 294.902344 192.34375 L 288.070312 192.34375 L 288.632812 187.824219 C 288.742188 186.902344 289.296875 186.089844 290.054688 185.660156 C 291.761719 184.996094 293.136719 184.226562 294.066406 183.433594 C 295.03125 182.898438 296.230469 183.019531 297.078125 183.703125 C 295.792969 185.304688 294.515625 186.523438 293.195312 187.410156 L 292.851562 187.644531 L 293.316406 188.332031 L 293.660156 188.101562 C 295.28125 187.023438 296.828125 185.476562 298.335938 183.433594 C 298.621094 183.148438 298.855469 182.820312 299.035156 182.460938 L 301.390625 177.75 C 301.503906 177.523438 301.710938 177.367188 301.960938 177.335938 C 302.210938 177.300781 302.453125 177.378906 302.625 177.550781 C 302.824219 177.765625 302.890625 178.058594 302.8125 178.335938 Z M 302.8125 178.335938 " fill-opacity="1" fill-rule="nonzero"/></g><g clip-path="url(#3946100790)"><path fill="#05927d" d="M 283.222656 187.730469 C 283.074219 186.546875 282.367188 185.496094 281.273438 184.890625 C 279.640625 184.253906 278.355469 183.539062 277.363281 182.71875 C 276.105469 182.019531 274.542969 182.175781 273.441406 183.0625 C 273.386719 182.992188 273.335938 182.933594 273.285156 182.863281 C 273.058594 182.640625 272.878906 182.390625 272.742188 182.105469 L 270.386719 177.394531 C 270.152344 176.929688 269.722656 176.609375 269.210938 176.53125 C 268.695312 176.445312 268.1875 176.609375 267.824219 176.980469 C 267.410156 177.394531 267.253906 178.007812 267.417969 178.578125 L 269.496094 185.53125 C 269.652344 186.046875 269.910156 186.511719 270.265625 186.917969 L 275.019531 192.355469 L 274.671875 192.355469 L 274.671875 196.519531 L 284.671875 196.519531 L 284.671875 192.355469 L 283.800781 192.355469 Z M 270.894531 186.375 C 270.617188 186.054688 270.421875 185.695312 270.300781 185.296875 L 268.203125 178.335938 C 268.125 178.058594 268.195312 177.765625 268.394531 177.566406 C 268.574219 177.386719 268.816406 177.308594 269.066406 177.351562 C 269.316406 177.394531 269.523438 177.542969 269.636719 177.765625 L 271.992188 182.476562 C 272.171875 182.839844 272.40625 183.167969 272.65625 183.40625 C 274.207031 185.496094 275.75 187.039062 277.375 188.117188 L 277.71875 188.351562 L 278.183594 187.660156 L 277.839844 187.429688 C 276.519531 186.546875 275.25 185.339844 273.957031 183.71875 C 274.800781 183.035156 275.992188 182.90625 276.90625 183.398438 C 277.898438 184.234375 279.269531 185.003906 280.9375 185.640625 C 281.746094 186.089844 282.300781 186.910156 282.410156 187.832031 L 282.972656 192.355469 L 276.140625 192.355469 Z M 283.835938 195.683594 L 275.511719 195.683594 L 275.511719 193.183594 L 283.84375 193.183594 L 283.84375 195.683594 Z M 283.835938 195.683594 " fill-opacity="1" fill-rule="nonzero"/></g><g clip-path="url(#528112704d)"><path fill="#05927d" d="M 296.035156 175.601562 C 298.941406 172.691406 298.941406 167.949219 296.035156 165.042969 C 293.136719 162.140625 288.417969 162.132812 285.507812 165.007812 C 282.59375 162.125 277.882812 162.132812 274.984375 165.042969 C 272.078125 167.949219 272.078125 172.691406 274.984375 175.601562 L 284.164062 184.789062 C 284.535156 185.160156 285.015625 185.339844 285.507812 185.339844 C 286 185.339844 286.484375 185.160156 286.855469 184.789062 Z M 284.75 184.203125 L 275.5625 175.015625 C 274.3125 173.761719 273.621094 172.097656 273.621094 170.320312 C 273.621094 168.542969 274.3125 166.878906 275.5625 165.628906 C 276.855469 164.332031 278.554688 163.6875 280.253906 163.6875 C 281.953125 163.6875 283.652344 164.332031 284.949219 165.628906 C 285.257812 165.9375 285.757812 165.9375 286.0625 165.628906 C 288.648438 163.039062 292.859375 163.039062 295.445312 165.628906 C 296.699219 166.878906 297.386719 168.542969 297.386719 170.320312 C 297.386719 172.097656 296.699219 173.761719 295.445312 175.015625 L 286.257812 184.203125 C 285.855469 184.597656 285.15625 184.597656 284.75 184.203125 Z M 284.75 184.203125 " fill-opacity="1" fill-rule="nonzero"/></g><path fill="#05927d" d="M 287.171875 169.027344 L 283.84375 169.027344 L 283.84375 171.527344 L 281.34375 171.527344 L 281.34375 174.859375 L 283.84375 174.859375 L 283.84375 177.359375 L 287.171875 177.359375 L 287.171875 174.859375 L 289.675781 174.859375 L 289.675781 171.527344 L 287.171875 171.527344 Z M 288.839844 172.355469 L 288.839844 174.023438 L 286.335938 174.023438 L 286.335938 176.523438 L 284.671875 176.523438 L 284.671875 174.023438 L 282.171875 174.023438 L 282.171875 172.355469 L 284.671875 172.355469 L 284.671875 169.855469 L 286.335938 169.855469 L 286.335938 172.355469 Z M 288.839844 172.355469 " fill-opacity="1" fill-rule="nonzero"/><g fill="#05927d" fill-opacity="1"><g transform="translate(123.831764, 171.663342)"><g><path d="M 6.78125 0.171875 C 4.75 0.171875 2.945312 0.0507812 1.375 -0.1875 L 1.375 -3.015625 C 3.070312 -2.847656 4.503906 -2.765625 5.671875 -2.765625 C 6.347656 -2.765625 6.867188 -2.789062 7.234375 -2.84375 C 7.597656 -2.90625 7.851562 -3 8 -3.125 C 8.144531 -3.238281 8.234375 -3.375 8.265625 -3.53125 C 8.296875 -3.6875 8.3125 -3.910156 8.3125 -4.203125 C 8.3125 -4.554688 8.285156 -4.804688 8.234375 -4.953125 C 8.179688 -5.109375 8.070312 -5.21875 7.90625 -5.28125 C 7.738281 -5.34375 7.445312 -5.40625 7.03125 -5.46875 L 4.375 -5.796875 C 3.425781 -5.910156 2.707031 -6.148438 2.21875 -6.515625 C 1.726562 -6.878906 1.394531 -7.351562 1.21875 -7.9375 C 1.039062 -8.519531 0.953125 -9.25 0.953125 -10.125 C 0.953125 -11.363281 1.179688 -12.300781 1.640625 -12.9375 C 2.097656 -13.582031 2.710938 -14.003906 3.484375 -14.203125 C 4.253906 -14.398438 5.238281 -14.5 6.4375 -14.5 C 7.3125 -14.5 8.113281 -14.460938 8.84375 -14.390625 C 9.570312 -14.328125 10.367188 -14.21875 11.234375 -14.0625 L 11.234375 -11.296875 C 9.578125 -11.472656 8.222656 -11.5625 7.171875 -11.5625 C 6.054688 -11.5625 5.332031 -11.476562 5 -11.3125 C 4.820312 -11.226562 4.707031 -11.109375 4.65625 -10.953125 C 4.601562 -10.804688 4.578125 -10.59375 4.578125 -10.3125 C 4.578125 -9.96875 4.601562 -9.722656 4.65625 -9.578125 C 4.707031 -9.429688 4.8125 -9.328125 4.96875 -9.265625 C 5.125 -9.203125 5.40625 -9.144531 5.8125 -9.09375 L 8.859375 -8.71875 C 9.472656 -8.644531 9.976562 -8.515625 10.375 -8.328125 C 10.769531 -8.148438 11.097656 -7.847656 11.359375 -7.421875 C 11.765625 -6.828125 11.96875 -5.875 11.96875 -4.5625 C 11.96875 -3.195312 11.75 -2.171875 11.3125 -1.484375 C 10.882812 -0.796875 10.304688 -0.347656 9.578125 -0.140625 C 8.859375 0.0664062 7.925781 0.171875 6.78125 0.171875 Z M 6.78125 0.171875 "/></g></g></g><g fill="#05927d" fill-opacity="1"><g transform="translate(139.004755, 171.663342)"><g><path d="M 13.734375 0 L 13.734375 -9.125 L 13.59375 -9.125 L 10.53125 0 L 8.0625 0 L 5 -9.125 L 4.859375 -9.125 L 4.859375 0 L 1.484375 0 L 1.484375 -14.34375 L 6.46875 -14.34375 L 9.296875 -6.0625 L 9.4375 -6.0625 L 12.25 -14.34375 L 17.21875 -14.34375 L 17.21875 0 Z M 13.734375 0 "/></g></g></g><g fill="#05927d" fill-opacity="1"><g transform="translate(159.950861, 171.663342)"><g><path d="M 10.5625 0 L 9.71875 -2.703125 L 4.609375 -2.703125 L 3.796875 0 L 0.171875 0 L 4.75 -14.34375 L 9.671875 -14.34375 L 14.25 0 Z M 7.1875 -11.125 L 7.09375 -11.125 L 5.4375 -5.65625 L 8.859375 -5.65625 Z M 7.1875 -11.125 "/></g></g></g><g fill="#05927d" fill-opacity="1"><g transform="translate(176.624449, 171.663342)"><g><path d="M 9.546875 0 L 7.671875 -5.015625 L 5.140625 -5.015625 L 5.140625 0 L 1.515625 0 L 1.515625 -14.34375 L 8.40625 -14.34375 C 9.71875 -14.34375 10.710938 -14.15625 11.390625 -13.78125 C 12.066406 -13.414062 12.507812 -12.910156 12.71875 -12.265625 C 12.9375 -11.617188 13.046875 -10.753906 13.046875 -9.671875 C 13.046875 -8.671875 12.914062 -7.800781 12.65625 -7.0625 C 12.40625 -6.332031 11.894531 -5.800781 11.125 -5.46875 L 13.34375 0 Z M 7.03125 -7.90625 C 7.78125 -7.90625 8.3125 -7.945312 8.625 -8.03125 C 8.9375 -8.113281 9.140625 -8.269531 9.234375 -8.5 C 9.328125 -8.726562 9.375 -9.113281 9.375 -9.65625 C 9.375 -10.207031 9.332031 -10.597656 9.25 -10.828125 C 9.164062 -11.054688 8.96875 -11.210938 8.65625 -11.296875 C 8.34375 -11.378906 7.8125 -11.421875 7.0625 -11.421875 L 5.140625 -11.421875 L 5.140625 -7.90625 Z M 7.03125 -7.90625 "/></g></g></g><g fill="#05927d" fill-opacity="1"><g transform="translate(193.027092, 171.663342)"><g><path d="M 4.296875 0 L 4.296875 -11.25 L 0.328125 -11.25 L 0.328125 -14.34375 L 11.90625 -14.34375 L 11.90625 -11.25 L 7.921875 -11.25 L 7.921875 0 Z M 4.296875 0 "/></g></g></g><g fill="#05927d" fill-opacity="1"><g transform="translate(87.536537, 200.462687)"><g><path d="M 9.6875 0 L 9.6875 -5.625 L 5.109375 -5.625 L 5.109375 0 L 1.484375 0 L 1.484375 -14.34375 L 5.109375 -14.34375 L 5.109375 -8.75 L 9.6875 -8.75 L 9.6875 -14.34375 L 13.3125 -14.34375 L 13.3125 0 Z M 9.6875 0 "/></g></g></g><g fill="#05927d" fill-opacity="1"><g transform="translate(104.585268, 200.462687)"><g><path d="M 1.515625 0 L 1.515625 -14.34375 L 11.6875 -14.34375 L 11.6875 -11.40625 L 5.140625 -11.40625 L 5.140625 -8.71875 L 10.6875 -8.71875 L 10.6875 -5.78125 L 5.140625 -5.78125 L 5.140625 -2.9375 L 11.6875 -2.9375 L 11.6875 0 Z M 1.515625 0 "/></g></g></g><g fill="#05927d" fill-opacity="1"><g transform="translate(119.654053, 200.462687)"><g><path d="M 10.5625 0 L 9.71875 -2.703125 L 4.609375 -2.703125 L 3.796875 0 L 0.171875 0 L 4.75 -14.34375 L 9.671875 -14.34375 L 14.25 0 Z M 7.1875 -11.125 L 7.09375 -11.125 L 5.4375 -5.65625 L 8.859375 -5.65625 Z M 7.1875 -11.125 "/></g></g></g><g fill="#05927d" fill-opacity="1"><g transform="translate(136.327641, 200.462687)"><g><path d="M 1.515625 0 L 1.515625 -14.34375 L 5.140625 -14.34375 L 5.140625 -3.078125 L 10.84375 -3.078125 L 10.84375 0 Z M 1.515625 0 "/></g></g></g><g fill="#05927d" fill-opacity="1"><g transform="translate(149.89583, 200.462687)"><g><path d="M 4.296875 0 L 4.296875 -11.25 L 0.328125 -11.25 L 0.328125 -14.34375 L 11.90625 -14.34375 L 11.90625 -11.25 L 7.921875 -11.25 L 7.921875 0 Z M 4.296875 0 "/></g></g></g><g fill="#05927d" fill-opacity="1"><g transform="translate(164.360204, 200.462687)"><g><path d="M 9.6875 0 L 9.6875 -5.625 L 5.109375 -5.625 L 5.109375 0 L 1.484375 0 L 1.484375 -14.34375 L 5.109375 -14.34375 L 5.109375 -8.75 L 9.6875 -8.75 L 9.6875 -14.34375 L 13.3125 -14.34375 L 13.3125 0 Z M 9.6875 0 "/></g></g></g><g fill="#05927d" fill-opacity="1"><g transform="translate(181.408932, 200.462687)"><g><path d="M 11.0625 -0.1875 C 10.59375 -0.09375 10 -0.0078125 9.28125 0.0625 C 8.570312 0.132812 7.90625 0.171875 7.28125 0.171875 C 5.46875 0.171875 4.128906 -0.0507812 3.265625 -0.5 C 2.410156 -0.945312 1.84375 -1.671875 1.5625 -2.671875 C 1.28125 -3.671875 1.140625 -5.171875 1.140625 -7.171875 C 1.140625 -9.140625 1.28125 -10.625 1.5625 -11.625 C 1.851562 -12.625 2.425781 -13.351562 3.28125 -13.8125 C 4.144531 -14.269531 5.476562 -14.5 7.28125 -14.5 C 7.90625 -14.5 8.5625 -14.460938 9.25 -14.390625 C 9.945312 -14.316406 10.523438 -14.222656 10.984375 -14.109375 L 10.984375 -11.359375 C 9.566406 -11.492188 8.628906 -11.5625 8.171875 -11.5625 C 7.035156 -11.5625 6.25 -11.472656 5.8125 -11.296875 C 5.382812 -11.128906 5.109375 -10.769531 4.984375 -10.21875 C 4.867188 -9.675781 4.8125 -8.660156 4.8125 -7.171875 C 4.8125 -5.679688 4.867188 -4.660156 4.984375 -4.109375 C 5.109375 -3.566406 5.382812 -3.207031 5.8125 -3.03125 C 6.25 -2.851562 7.035156 -2.765625 8.171875 -2.765625 C 9.203125 -2.765625 10.164062 -2.835938 11.0625 -2.984375 Z M 11.0625 -0.1875 "/></g></g></g><g fill="#05927d" fill-opacity="1"><g transform="translate(195.623217, 200.462687)"><g><path d="M 10.5625 0 L 9.71875 -2.703125 L 4.609375 -2.703125 L 3.796875 0 L 0.171875 0 L 4.75 -14.34375 L 9.671875 -14.34375 L 14.25 0 Z M 7.1875 -11.125 L 7.09375 -11.125 L 5.4375 -5.65625 L 8.859375 -5.65625 Z M 7.1875 -11.125 "/></g></g></g><g fill="#05927d" fill-opacity="1"><g transform="translate(212.296799, 200.462687)"><g><path d="M 9.546875 0 L 7.671875 -5.015625 L 5.140625 -5.015625 L 5.140625 0 L 1.515625 0 L 1.515625 -14.34375 L 8.40625 -14.34375 C 9.71875 -14.34375 10.710938 -14.15625 11.390625 -13.78125 C 12.066406 -13.414062 12.507812 -12.910156 12.71875 -12.265625 C 12.9375 -11.617188 13.046875 -10.753906 13.046875 -9.671875 C 13.046875 -8.671875 12.914062 -7.800781 12.65625 -7.0625 C 12.40625 -6.332031 11.894531 -5.800781 11.125 -5.46875 L 13.34375 0 Z M 7.03125 -7.90625 C 7.78125 -7.90625 8.3125 -7.945312 8.625 -8.03125 C 8.9375 -8.113281 9.140625 -8.269531 9.234375 -8.5 C 9.328125 -8.726562 9.375 -9.113281 9.375 -9.65625 C 9.375 -10.207031 9.332031 -10.597656 9.25 -10.828125 C 9.164062 -11.054688 8.96875 -11.210938 8.65625 -11.296875 C 8.34375 -11.378906 7.8125 -11.421875 7.0625 -11.421875 L 5.140625 -11.421875 L 5.140625 -7.90625 Z M 7.03125 -7.90625 "/></g></g></g><g fill="#05927d" fill-opacity="1"><g transform="translate(228.699442, 200.462687)"><g><path d="M 1.515625 0 L 1.515625 -14.34375 L 11.6875 -14.34375 L 11.6875 -11.40625 L 5.140625 -11.40625 L 5.140625 -8.71875 L 10.6875 -8.71875 L 10.6875 -5.78125 L 5.140625 -5.78125 L 5.140625 -2.9375 L 11.6875 -2.9375 L 11.6875 0 Z M 1.515625 0 "/></g></g></g></svg>